<?xml version="1.0" encoding="UTF-8" standalone="no"?>
<!DOCTYPE svg PUBLIC "-//W3C//DTD SVG 1.1//EN" "http://www.w3.org/Graphics/SVG/1.1/DTD/svg11.dtd">
<svg width="100%" height="100%" viewBox="0 0 2035 575" version="1.1" xmlns="http://www.w3.org/2000/svg" xmlns:xlink="http://www.w3.org/1999/xlink" xml:space="preserve" xmlns:serif="http://www.serif.com/" style="fill-rule:evenodd;clip-rule:evenodd;stroke-linejoin:round;stroke-miterlimit:2;">
    <g transform="matrix(1,0,0,1,-29,0)">
        <g transform="matrix(0.12245,0.0209997,-0.0209997,0.12245,1504.68,41.4033)">
            <g transform="matrix(14.128,0,0,14.128,-532.732,-43.8221)">
                <path d="M93.5,22.5C93.5,23.5 94.427,24.697 94.427,25.697C92.37,26.413 89.277,26.883 87,27.5C86.667,26.833 86.333,26.167 86,25.5C82.22,24.854 78.553,25.52 75,27.5C73.667,26.167 72.333,26.167 71,27.5C70.667,26.833 70.333,26.167 70,25.5C69.333,26.833 68.667,26.833 68,25.5C66.597,27.198 64.764,27.698 62.5,27C61.845,28.487 60.845,29.653 59.5,30.5C56.914,29.683 53.914,29.683 50.5,30.5C50.307,26.752 51.307,23.418 53.5,20.5C53.144,17.127 62.18,6.42 65.315,5.42C66.9,5.964 69.725,10.932 71.14,11.721C72.431,11.958 73.158,11.047 73.867,10.143C74.975,8.65 75.716,7.477 77.608,6.969C83.462,3.684 90.274,14.203 93.5,22.5Z" style="fill:rgb(251,236,251);"/>
            </g>
            <g transform="matrix(14.128,0,0,14.128,-532.732,-43.8221)">
                <path d="M70.5,11.5C69.085,10.711 67.368,7.192 65.776,7.558C63.104,8.172 60.812,11.075 58.5,13.5C59.702,11.608 61.035,9.774 62.5,8C65.726,4.965 68.822,7.334 70.5,11.5Z" style="fill:rgb(255,183,197);"/>
            </g>
            <g transform="matrix(14.128,0,0,14.128,-532.732,-43.8221)">
                <path d="M87.5,8.5C88.5,9.167 89.5,9.833 90.5,10.5C92.262,11.262 93.262,12.596 93.5,14.5C90.492,13.363 88.492,11.363 87.5,8.5Z" style="fill:rgb(244,219,220);"/>
            </g>
            <g transform="matrix(14.128,0,0,14.128,-532.732,-43.8221)">
                <path d="M98.5,19.5C99.906,19.973 100.573,20.973 100.5,22.5C99.833,22.167 99.167,21.833 98.5,21.5L98.5,19.5Z" style="fill:rgb(227,245,206);fill-opacity:0.09;"/>
            </g>
            <g transform="matrix(14.128,0,0,14.128,-532.732,-43.8221)">
                <path d="M94.193,25.402C94.961,26.164 94.768,27.263 95,28.5C95.499,33.823 95.666,39.156 95.5,44.5C92.701,44.277 90.034,44.11 87.5,44C86.36,43.259 86.36,42.426 87.5,41.5C85.407,40.303 84.24,38.969 84,37.5C82.715,37.95 81.548,38.617 80.5,39.5C78.826,38.12 77.16,36.787 75.5,35.5C73.154,36.09 70.654,36.09 68,35.5C64.651,34.97 62.151,36.136 60.5,39C61,39.5 61.5,40 62,40.5C64.841,39.494 67.341,39.494 69.5,40.5C65.154,39.914 61.654,41.581 59,45.5C58.692,44.692 58.192,44.025 57.5,43.5C57.511,44.442 57.011,45.108 56,45.5C55.228,45.355 54.561,45.022 54,44.5C52.887,45.76 52.72,46.927 53.5,48C50.738,49.077 49.072,48.244 48.5,45.5C49.649,45.209 50.316,44.376 50.5,43C49.265,38.777 49.265,34.61 50.5,30.5C53.914,29.683 56.914,29.683 59.5,30.5C60.845,29.653 61.845,28.487 62.5,27C64.764,27.698 66.597,27.198 68,25.5C68.667,26.833 69.333,26.833 70,25.5C70.333,26.167 70.667,26.833 71,27.5C72.333,26.167 73.667,26.167 75,27.5C78.553,25.52 82.22,24.854 86,25.5C86.333,26.167 86.667,26.833 87,27.5C89.277,26.883 92.137,26.118 94.193,25.402Z" style="fill:rgb(251,236,252);"/>
            </g>
            <g transform="matrix(14.128,0,0,14.128,-532.732,-43.8221)">
                <path d="M53.5,20.5C51.307,23.418 49.265,38.777 50.5,43C50.316,44.376 49.649,45.209 48.5,45.5L47.5,45.5C39.458,42.596 31.125,41.929 22.5,43.5C22.918,42.778 23.584,42.278 24.5,42C31.863,41.464 39.196,41.797 46.5,43C47.416,43.374 45.75,42.374 46.5,43C41.716,40.327 47.318,39.168 47.5,36.5C47.621,35.106 47.954,33.772 48.5,32.5C48.043,31.703 47.376,31.369 46.5,31.5L46.5,25.5C47.496,25.414 48.329,25.748 49,26.5C48.941,23.157 50.441,21.157 53.5,20.5Z" style="fill:rgb(255,183,197);"/>
            </g>
            <g transform="matrix(14.128,0,0,14.128,-532.732,-43.8221)">
                <path d="M95.5,44.5C95.369,45.376 95.703,46.043 96.5,46.5C97.417,45.873 98.417,45.539 99.5,45.5C100.632,48.926 102.632,51.76 105.5,54C104.978,54.561 104.645,55.228 104.5,56C106.002,57.752 107.002,59.752 107.5,62C108.646,62.759 109.646,63.426 110.5,64C109.167,65.667 109.167,67.333 110.5,69C110.095,69.945 109.428,70.612 108.5,71C110.639,76.61 108.972,81.61 103.5,86C104.328,86.915 105.328,87.581 106.5,88C105.464,89.617 104.297,89.784 103,88.5C101.623,90.754 100.123,92.921 98.5,95C99.448,95.483 100.448,95.65 101.5,95.5C101.587,98.598 101.087,98.932 100,96.5C97.985,98.917 95.985,100.584 94,101.5C93.667,100.5 93.333,99.5 93,98.5C90.442,103.767 86.442,106.101 81,105.5C79.371,106.547 77.704,107.547 76,108.5C74.249,107.826 72.583,107.493 71,107.5C70.374,109.991 69.541,109.991 68.5,107.5C67.808,108.025 67.308,108.692 67,109.5C65.654,106.751 64.32,106.417 63,108.5C62.259,105.05 60.259,102.717 57,101.5C56.805,103.207 56.805,104.874 57,106.5C54.549,104.869 54.049,103.036 55.5,101C53.566,99.647 51.733,98.147 50,96.5C49.259,97.641 48.426,97.641 47.5,96.5C46.205,94.672 45.205,92.672 44.5,90.5C44.089,91.262 43.923,92.262 44,93.5C42.984,92.366 42.317,92.699 42,94.5C40.513,93.747 40.346,92.914 41.5,92C38.833,91.333 38.833,90.667 41.5,90C40.12,88.676 39.786,87.343 40.5,86C39.782,83.539 39.115,81.039 38.5,78.5C38.937,72.385 38.937,66.385 38.5,60.5C39.529,60.704 40.529,60.204 41.5,59C40.5,58.667 39.5,58.333 38.5,58C39.833,57 39.833,56 38.5,55C38.833,54.833 39.167,54.667 39.5,54.5C42.49,60.015 43.99,59.682 44,53.5C44.654,54.696 45.154,54.696 45.5,53.5C44.515,51.902 44.349,50.235 45,48.5C45.667,47.167 46.333,47.167 47,48.5C47.483,47.552 47.65,46.552 47.5,45.5L48.5,45.5C49.072,48.244 50.738,49.077 53.5,48C52.72,46.927 52.887,45.76 54,44.5C54.561,45.022 55.228,45.355 56,45.5C57.011,45.108 57.511,44.442 57.5,43.5C58.192,44.025 58.692,44.692 59,45.5C61.654,41.581 65.154,39.914 69.5,40.5C67.341,39.494 64.841,39.494 62,40.5C61.5,40 61,39.5 60.5,39C62.151,36.136 64.651,34.97 68,35.5C70.654,36.09 73.154,36.09 75.5,35.5C77.16,36.787 78.826,38.12 80.5,39.5C81.548,38.617 82.715,37.95 84,37.5C84.24,38.969 85.407,40.303 87.5,41.5C86.36,42.426 86.36,43.259 87.5,44C90.034,44.11 92.701,44.277 95.5,44.5Z" style="fill:rgb(251,236,252);"/>
            </g>
            <g transform="matrix(14.128,0,0,14.128,-532.732,-43.8221)">
                <path d="M122.5,39.5C124.565,39.517 126.565,39.85 128.5,40.5C130.403,40.796 132.07,41.463 133.5,42.5C129.521,42.258 125.854,41.258 122.5,39.5Z" style="fill:rgb(245,219,220);fill-opacity:0.92;"/>
            </g>
            <g transform="matrix(14.128,0,0,14.128,-532.732,-43.8221)">
                <path d="M14.5,40.5C14.027,41.906 13.027,42.573 11.5,42.5C11.973,41.094 12.973,40.427 14.5,40.5Z" style="fill:rgb(229,241,207);fill-opacity:0.24;"/>
            </g>
            <g transform="matrix(14.128,0,0,14.128,-532.732,-43.8221)">
                <path d="M47.5,45.5C47.65,46.552 47.483,47.552 47,48.5C46.333,47.167 45.667,47.167 45,48.5C44.349,50.235 44.515,51.902 45.5,53.5C45.154,54.696 44.654,54.696 44,53.5C43.99,59.682 42.49,60.015 39.5,54.5C39.167,54.667 38.833,54.833 38.5,55C39.833,56 39.833,57 38.5,58C39.5,58.333 40.5,58.667 41.5,59C40.529,60.204 39.529,60.704 38.5,60.5C38.937,66.385 38.937,72.385 38.5,78.5C39.115,81.039 39.782,83.539 40.5,86C39.786,87.343 40.12,88.676 41.5,90C38.833,90.667 38.833,91.333 41.5,92C40.346,92.914 40.513,93.747 42,94.5C42.317,92.699 42.984,92.366 44,93.5C43.923,92.262 44.089,91.262 44.5,90.5C45.205,92.672 46.205,94.672 47.5,96.5C48.426,97.641 49.259,97.641 50,96.5C51.733,98.147 53.566,99.647 55.5,101C54.049,103.036 54.549,104.869 57,106.5C56.805,104.874 56.805,103.207 57,101.5C60.259,102.717 62.259,105.05 63,108.5C64.32,106.417 65.654,106.751 67,109.5C67.308,108.692 67.808,108.025 68.5,107.5C69.541,109.991 70.374,109.991 71,107.5C72.583,107.493 74.249,107.826 76,108.5C77.704,107.547 79.371,106.547 81,105.5C86.442,106.101 90.442,103.767 93,98.5C93.333,99.5 93.667,100.5 94,101.5C95.985,100.584 97.985,98.917 100,96.5C101.087,98.932 101.587,98.598 101.5,95.5C100.448,95.65 99.448,95.483 98.5,95C100.123,92.921 101.623,90.754 103,88.5C104.297,89.784 105.464,89.617 106.5,88C105.328,87.581 104.328,86.915 103.5,86C108.972,81.61 110.639,76.61 108.5,71C109.428,70.612 110.095,69.945 110.5,69C109.167,67.333 109.167,65.667 110.5,64C109.646,63.426 108.646,62.759 107.5,62C107.002,59.752 106.002,57.752 104.5,56C104.645,55.228 104.978,54.561 105.5,54C102.632,51.76 100.632,48.926 99.5,45.5C99.228,45.239 98.938,43.582 100.5,44.5C107.131,42.982 113.798,42.474 120.5,43.5C119.282,44.161 117.949,44.828 116.5,45.5C117.415,46.328 118.081,47.328 118.5,48.5C117.669,50.473 117.502,52.473 118,54.5C119.147,53.542 120.147,53.875 121,55.5C121.333,54.833 121.667,54.167 122,53.5C123.691,55.709 123.524,57.542 121.5,59C122.833,59.667 122.833,60.333 121.5,61C122.167,61.333 122.833,61.667 123.5,62C122.167,66 122.167,70 123.5,74C121.699,74.317 121.366,74.984 122.5,76C121.743,77.512 120.743,78.846 119.5,80C121.01,80.85 122.51,81.683 124,82.5C124.945,82.095 125.612,81.428 126,80.5C126.671,81.252 127.504,81.586 128.5,81.5C122.533,84.833 116.533,88.166 110.5,91.5C112.555,96.08 114.888,100.579 117.5,105C118.872,108.026 119.538,111.193 119.5,114.5C117.993,112.711 116.66,110.711 115.5,108.5C116.405,104.712 114.738,102.712 110.5,102.5C110.66,104.199 110.494,105.866 110,107.5C109.667,106.833 109.333,106.167 109,105.5C107.601,106.227 106.101,106.727 104.5,107C103.274,108.635 101.941,110.135 100.5,111.5C98.425,110.238 96.425,110.405 94.5,112C94.945,114.672 94.112,117.172 92,119.5C91.667,118.833 91.333,118.167 91,117.5C90.333,118.833 89.667,118.833 89,117.5C88,118.5 87,119.5 86,120.5C81.893,119.245 78.227,117.911 75,116.5C72.485,118.368 72.318,120.702 74.5,123.5C73.448,123.351 72.448,123.517 71.5,124C70.077,126.531 68.077,128.365 65.5,129.5C64.167,129.833 62.833,130.167 61.5,130.5C61.35,129.448 61.517,128.448 62,127.5C63.825,126.897 65.659,126.23 67.5,125.5C68.5,123.5 69.5,121.5 70.5,119.5C69.372,118.738 68.205,118.071 67,117.5C66.101,119.516 64.767,121.183 63,122.5C62.71,120.956 62.044,119.623 61,118.5C60.667,118.833 60.333,119.167 60,119.5C55.449,119.353 53.116,117.02 53,112.5C51.899,114.394 50.566,115.061 49,114.5C46.738,111.793 44.071,110.793 41,111.5C39.879,106.311 39.045,100.978 38.5,95.5C37.743,97.597 37.576,99.93 38,102.5C36.701,102.966 35.201,102.966 33.5,102.5C33.496,99.456 32.996,96.456 32,93.5C30.513,94.253 30.346,95.086 31.5,96C30.295,97.376 28.962,98.542 27.5,99.5C28.349,96.965 28.116,94.543 29.268,92.078C26.107,90.514 24.34,88.602 21.5,86.5C24.097,85.405 26.597,85.738 29,87.5C29.218,84.574 29.718,81.741 30.5,79C28.559,78.257 26.726,78.424 25,79.5C21.867,77.586 21.7,75.419 24.5,73C22.95,67.117 22.284,61.284 22.5,55.5C25.298,55.447 27.798,54.781 30,53.5C30.333,55.167 30.667,56.833 31,58.5C32.284,57.428 32.617,56.095 32,54.5C33.016,53.366 33.683,53.699 34,55.5C34.274,53.671 35.107,52.171 36.5,51C36.167,50.667 35.833,50.333 35.5,50C37.607,48.737 38.607,46.903 38.5,44.5C30.954,44.038 23.621,44.705 16.5,46.5C18.182,44.993 20.182,43.993 22.5,43.5C31.125,41.929 39.458,42.596 47.5,45.5Z" style="fill:rgb(251,236,252);"/>
            </g>
            <g transform="matrix(14.128,0,0,14.128,-532.732,-43.8221)">
                <path d="M94.5,86.5C94.548,83.708 93.215,81.875 90.5,81C91.38,79.644 91.714,78.144 91.5,76.5C92.552,76.65 93.552,76.483 94.5,76C93.884,72.515 93.384,68.682 93,64.5C91.261,62.957 89.761,61.29 88.5,59.5C84.71,56.286 81.21,53.286 78,50.5C75.593,50.673 73.26,50.673 71,50.5C70.529,52.246 69.862,53.913 69,55.5C67.244,54.015 66.077,54.348 65.5,56.5C60.974,54.335 58.141,55.668 57,60.5C56.283,59.549 55.449,59.383 54.5,60C55.532,63.295 54.532,65.961 51.5,68C53.869,70.326 55.203,73.159 55.5,76.5C52.888,77.096 52.888,77.929 55.5,79C53.942,79.21 52.609,79.71 51.5,80.5L51.5,83.5C50.278,85.54 48.611,85.54 46.5,83.5C46.709,82.914 47.043,82.414 47.5,82C46.426,81.261 45.759,80.261 45.5,79C46.422,76.534 46.422,74.201 45.5,72C45.863,68.831 47.197,66.164 49.5,64C48.5,63 47.5,62 46.5,61C47.449,60.383 48.283,60.549 49,61.5C48.843,57.173 50.51,53.84 54,51.5C54.216,49.616 54.883,47.949 56,46.5C60.264,46.928 64.43,46.928 68.5,46.5C69.519,45.313 70.686,44.313 72,43.5C76.458,45.226 80.958,46.059 85.5,46C85.167,46.333 84.833,46.667 84.5,47C86.091,48.046 87.591,49.213 89,50.5C90.667,49.66 90.833,50.16 89.5,52C90.931,52.465 92.098,53.299 93,54.5C93.333,53.167 93.667,51.833 94,50.5C95.166,51.834 95.333,53.5 94.5,55.5C94.833,56.5 95.167,57.5 95.5,58.5C96.965,57.391 97.965,57.891 98.5,60C96.549,63.24 97.216,66.24 100.5,69C99.366,70.016 99.699,70.683 101.5,71C99.875,71.853 99.542,72.853 100.5,74C99.944,76.237 98.944,78.237 97.5,80C97.847,81.569 98.014,83.402 98,85.5C96.989,86.337 95.822,86.67 94.5,86.5Z" style="fill:rgb(251,236,252);"/>
            </g>
            <g transform="matrix(14.128,0,0,14.128,-532.732,-43.8221)">
                <path d="M120.5,43.5C122.428,43.212 124.393,43.513 126.5,44.5C130.401,44.872 133.532,46.597 136,49.5C138.74,51.153 137.577,54.45 137,57.5C143.398,55.765 142.39,61.505 138.5,68.5C136.357,73.804 133.024,78.138 128.5,81.5C127.504,81.586 126.671,81.252 126,80.5C125.612,81.428 124.945,82.095 124,82.5C122.51,81.683 121.01,80.85 119.5,80C120.743,78.846 121.743,77.512 122.5,76C121.366,74.984 121.699,74.317 123.5,74C122.167,70 122.167,66 123.5,62C122.833,61.667 122.167,61.333 121.5,61C122.833,60.333 122.833,59.667 121.5,59C123.524,57.542 123.691,55.709 122,53.5C121.667,54.167 121.333,54.833 121,55.5C120.147,53.875 119.147,53.542 118,54.5C117.502,52.473 117.669,50.473 118.5,48.5C118.081,47.328 117.415,46.328 116.5,45.5C117.949,44.828 119.282,44.161 120.5,43.5Z" style="fill:rgb(251,236,252);"/>
            </g>
            <g transform="matrix(14.128,0,0,14.128,-532.732,-43.8221)">
                <path d="M93.5,22.5C94.559,23.6 95.392,24.934 96,26.5C96.5,32.491 96.666,38.491 96.5,44.5L100.5,44.5C100.5,45.167 97.417,45.873 96.5,46.5C95.703,46.043 95.369,45.376 95.5,44.5C95.666,39.156 95.499,33.823 95,28.5C94.768,27.263 93.5,23.5 93.5,22.5Z" style="fill:rgb(255,183,197);"/>
            </g>
            <g transform="matrix(14.128,0,0,14.128,-532.732,-43.8221)">
                <path d="M21.5,86.5C18.588,85.571 15.921,84.238 13.5,82.5C13.167,81.833 12.833,81.167 12.5,80.5C10.945,77.06 9.112,73.727 7,70.5C6.037,66.851 5.775,63.598 7.738,60.58C9.301,60.25 11.12,59.461 11.5,58C10.756,55.845 9.756,53.845 8.5,52C10.527,49.124 14.164,45.487 17.471,44.696C24.592,42.901 30.954,44.038 38.5,44.5C38.607,46.903 37.607,48.737 35.5,50C35.833,50.333 36.167,50.667 36.5,51C35.107,52.171 34.274,53.671 34,55.5C33.683,53.699 33.016,53.366 32,54.5C32.617,56.095 32.284,57.428 31,58.5C30.667,56.833 30.333,55.167 30,53.5C27.798,54.781 25.298,55.447 22.5,55.5C22.284,61.284 22.95,67.117 24.5,73C21.7,75.419 21.867,77.586 25,79.5C26.726,78.424 28.559,78.257 30.5,79C29.718,81.741 29.218,84.574 29,87.5C26.597,85.738 24.097,85.405 21.5,86.5Z" style="fill:rgb(251,236,252);"/>
            </g>
            <g transform="matrix(14.128,0,0,14.128,-532.732,-43.8221)">
                <path d="M142.5,46.5C144.017,49.035 145.35,51.702 146.5,54.5C143.013,53.555 141.68,51.222 142.5,47.5L142.5,46.5Z" style="fill:rgb(225,242,202);fill-opacity:0.03;"/>
            </g>
            <g transform="matrix(14.128,0,0,14.128,-532.732,-43.8221)">
                <path d="M88.5,59.5L87.5,59.5C87.083,58.876 86.416,58.543 85.5,58.5C83.27,59.35 80.937,60.35 78.5,61.5C77.863,60.782 77.863,59.782 78.5,58.5C78.253,57.287 77.586,56.62 76.5,56.5C74.317,55.157 72.317,55.49 70.5,57.5C69.081,56.549 67.415,56.216 65.5,56.5C66.077,54.348 67.244,54.015 69,55.5C69.862,53.913 70.529,52.246 71,50.5C73.26,50.673 75.593,50.673 78,50.5C81.21,53.286 84.71,56.286 88.5,59.5Z" style="fill:rgb(252,235,228);"/>
            </g>
            <g transform="matrix(14.128,0,0,14.128,-532.732,-43.8221)">
                <path d="M65.5,56.5L65.5,61.5L70.5,61.5L70.5,57.5C72.317,55.49 74.317,55.157 76.5,56.5L72.5,56.5C72.232,58.099 72.566,59.432 73.5,60.5C73.813,63.247 73.48,65.914 72.5,68.5C71.184,65.972 70.017,65.972 69,68.5C66.676,66.499 64.842,64.166 63.5,61.5C63.804,60.85 64.137,60.184 64.5,59.5C62.955,58.548 61.288,58.215 59.5,58.5L59.5,62.5L62.5,62.5C64.31,66.598 66.31,70.598 68.5,74.5L62.5,74.5C60.721,76.344 58.388,77.01 55.5,76.5C55.203,73.159 53.869,70.326 51.5,68C54.532,65.961 55.532,63.295 54.5,60C55.449,59.383 56.283,59.549 57,60.5C58.141,55.668 60.974,54.335 65.5,56.5Z" style="fill:rgb(251,237,227);"/>
            </g>
            <g transform="matrix(14.128,0,0,14.128,-532.732,-43.8221)">
                <path d="M79.276,1.186C81.917,2.814 84.808,4.794 87.5,6.5L87.5,8.5C86.417,8.539 85.417,8.873 84.5,9.5C81.001,5.057 77.001,4.557 72.5,8C73.252,8.671 73.586,9.504 73.5,10.5C72.791,11.404 72.245,13.107 70.954,12.87C70.732,12.259 70.472,11.692 70.178,11.174C68.527,8.272 65.789,6.916 62.5,8C61.035,9.774 59.702,11.608 58.5,13.5C56.113,15.258 54.446,17.591 53.5,20.5C50.441,21.157 48.941,23.157 49,26.5C48.329,25.748 47.496,25.414 46.5,25.5C47.819,15.468 64.007,-1.197 67.172,1.696C68.789,2.234 70.178,4.741 71.894,4.87C73.448,2.985 76.829,1.301 79.276,1.186Z" style="fill:rgb(255,183,197);"/>
            </g>
            <g transform="matrix(14.128,0,0,14.128,-532.732,-43.8221)">
                <path d="M46.667,24.982C47.543,24.852 48.043,31.703 48.5,32.5C47.954,33.772 47.621,35.106 47.5,36.5C48.357,39.171 48.857,41.837 49,44.5C48.25,43.874 47.416,43.374 46.5,43C39.196,41.797 31.863,41.464 24.5,42C23.584,42.278 22.918,42.778 22.5,43.5C19.462,43.64 10.011,48.871 8.5,52C9.617,54.179 13.101,56.223 14.078,57.818C13.654,58.932 10.085,59.977 8.5,60.5C7.55,60.813 6.794,61.216 5.794,61.216C4.187,69.4 6.226,75.351 12.5,80.5C12.833,81.167 13.167,81.833 13.5,82.5C14.028,83.721 14.695,84.887 15.5,86C19.455,87.311 23.121,89.144 26.5,91.5C27.386,92.325 27.719,93.325 27.5,94.5C26.504,94.414 25.671,94.748 25,95.5C24.098,97.927 23.264,100.26 22.5,102.5C22.964,100.933 24.062,99.724 24.062,98.057C24.618,96.131 24.198,95.132 23.073,93.824C16.786,99.322 -1.098,72.72 0.425,58.692C0.545,57.59 1.886,57.085 2.843,56.521C3.755,55.984 4.084,56.457 3.332,54.999C2.606,54.749 1.261,52.938 1.48,51.144C1.575,50.364 2.256,49.388 2.955,48.769C4.282,47.593 17.144,38.779 20.97,38.308C28.637,35.999 36.233,36.847 44.5,37.5C44.403,35.329 45.319,26.83 46.667,24.982Z" style="fill:rgb(255,183,197);"/>
            </g>
            <g transform="matrix(14.128,0,0,14.128,-532.732,-43.8221)">
                <path d="M76.5,56.5C76.768,58.099 76.435,59.432 75.5,60.5L73.5,60.5C72.566,59.432 72.232,58.099 72.5,56.5L76.5,56.5Z" style="fill:rgb(254,244,210);"/>
            </g>
            <g transform="matrix(14.128,0,0,14.128,-532.732,-43.8221)">
                <path d="M65.5,56.5C67.415,56.216 69.081,56.549 70.5,57.5L70.5,61.5L65.5,61.5L65.5,56.5Z" style="fill:rgb(250,239,214);"/>
            </g>
            <g transform="matrix(14.128,0,0,14.128,-532.732,-43.8221)">
                <rect x="66.5" y="57.5" width="3" height="3" style="fill:rgb(254,251,206);"/>
            </g>
            <g transform="matrix(14.128,0,0,14.128,-532.732,-43.8221)">
                <path d="M76.5,56.5C77.586,56.62 78.253,57.287 78.5,58.5C77.863,59.782 77.863,60.782 78.5,61.5C80.937,60.35 83.27,59.35 85.5,58.5C86.416,58.543 87.083,58.876 87.5,59.5C86.094,59.973 85.427,60.973 85.5,62.5C82.379,63.288 80.712,65.288 80.5,68.5C79.178,68.33 78.011,68.663 77,69.5C76.741,66.413 76.241,63.413 75.5,60.5C76.435,59.432 76.768,58.099 76.5,56.5Z" style="fill:rgb(251,236,221);"/>
            </g>
            <g transform="matrix(14.128,0,0,14.128,-532.732,-43.8221)">
                <path d="M63.5,61.5C62.833,61.5 62.5,61.833 62.5,62.5L59.5,62.5L59.5,58.5C61.288,58.215 62.955,58.548 64.5,59.5C64.137,60.184 63.804,60.85 63.5,61.5Z" style="fill:rgb(253,245,214);"/>
            </g>
            <g transform="matrix(14.128,0,0,14.128,-532.732,-43.8221)">
                <path d="M87.5,59.5L88.5,59.5C88.88,61.698 88.213,63.365 86.5,64.5C86.672,63.508 86.338,62.842 85.5,62.5C85.427,60.973 86.094,59.973 87.5,59.5Z" style="fill:rgb(254,247,211);"/>
            </g>
            <g transform="matrix(14.128,0,0,14.128,-532.732,-43.8221)">
                <path d="M58.5,74.5C57.662,74.158 57.328,73.492 57.5,72.5C58.824,71.15 59.824,71.317 60.5,73C60.164,74.03 59.497,74.53 58.5,74.5Z" style="fill:rgb(254,250,206);"/>
            </g>
            <g transform="matrix(14.128,0,0,14.128,-532.732,-43.8221)">
                <path d="M62.5,74.5C61.039,75.686 59.705,75.686 58.5,74.5C59.497,74.53 60.164,74.03 60.5,73C59.824,71.317 58.824,71.15 57.5,72.5C58.552,70.744 60.219,70.077 62.5,70.5L62.5,74.5Z" style="fill:rgb(251,241,215);"/>
            </g>
            <g transform="matrix(14.128,0,0,14.128,-532.732,-43.8221)">
                <path d="M8.5,60.5C6.537,63.518 10.945,77.06 12.5,80.5C4.603,76.398 3.347,69.037 5.5,60.5L8.5,60.5Z" style="fill:rgb(255,183,197);"/>
            </g>
            <g transform="matrix(14.128,0,0,14.128,-532.732,-43.8221)">
                <path d="M88.5,59.5C89.761,61.29 91.261,62.957 93,64.5C93.384,68.682 93.884,72.515 94.5,76C93.552,76.483 92.552,76.65 91.5,76.5C91.714,78.144 91.38,79.644 90.5,81C93.215,81.875 94.548,83.708 94.5,86.5L92.5,86.5L92.5,87.5C90.919,88.579 89.253,88.579 87.5,87.5C85.825,87.868 84.825,88.868 84.5,90.5C82.517,90.157 81.183,90.824 80.5,92.5C79.662,92.842 79.328,93.508 79.5,94.5C78.761,94.631 78.094,94.464 77.5,94C78.267,92.53 78.933,91.03 79.5,89.5C79.149,87.131 78.982,84.797 79,82.5C79.667,84.5 81,85.833 83,86.5C83.492,85.451 83.326,84.451 82.5,83.5C83.729,82.719 85.062,82.219 86.5,82C84.649,80.316 82.982,78.483 81.5,76.5C82.635,74.538 82.635,72.538 81.5,70.5C83.175,68.469 84.841,66.469 86.5,64.5C88.213,63.365 88.88,61.698 88.5,59.5Z" style="fill:rgb(251,237,229);"/>
            </g>
            <g transform="matrix(14.128,0,0,14.128,-532.732,-43.8221)">
                <path d="M91.5,66.5L91.5,69.5L88.5,69.5C87.596,68.791 87.263,67.791 87.5,66.5L91.5,66.5Z" style="fill:rgb(254,249,210);"/>
            </g>
            <g transform="matrix(14.128,0,0,14.128,-532.732,-43.8221)">
                <path d="M91.5,66.5C92.435,67.568 92.768,68.901 92.5,70.5C90.901,70.768 89.568,70.435 88.5,69.5L91.5,69.5L91.5,66.5Z" style="fill:rgb(252,239,216);"/>
            </g>
            <g transform="matrix(14.128,0,0,14.128,-532.732,-43.8221)">
                <path d="M62.5,74.5L68.5,74.5C63.825,76.17 59.825,78.837 56.5,82.5C56.5,83.833 55.833,84.5 54.5,84.5L54.5,80.5L51.5,80.5C52.609,79.71 53.942,79.21 55.5,79C52.888,77.929 52.888,77.096 55.5,76.5C58.388,77.01 60.721,76.344 62.5,74.5Z" style="fill:rgb(250,244,236);"/>
            </g>
            <g transform="matrix(14.128,0,0,14.128,-532.732,-43.8221)">
                <path d="M73.5,60.5L75.5,60.5C76.241,63.413 76.741,66.413 77,69.5C78.011,68.663 79.178,68.33 80.5,68.5C81.616,66.218 83.427,64.366 85.5,62.5C86.338,62.842 86.672,63.508 86.5,64.5C84.841,66.469 83.175,68.469 81.5,70.5C82.635,72.538 82.635,74.538 81.5,76.5C82.982,78.483 84.649,80.316 86.5,82C85.062,82.219 83.729,82.719 82.5,83.5C83.326,84.451 83.492,85.451 83,86.5C81,85.833 79.667,84.5 79,82.5C78.982,84.797 79.149,87.131 79.5,89.5C78.728,88.307 77.728,87.307 76.5,86.5L76.5,83.5L73.5,83.5C73.719,84.675 73.386,85.675 72.5,86.5C70.8,85.39 69.466,84.057 68.5,82.5C69.822,82.33 70.989,82.663 72,83.5C73.754,81.75 75.921,81.083 78.5,81.5C78.704,78.455 78.704,75.621 78.5,73C75.792,72.149 73.292,71.649 71,71.5C71.209,75.459 69.375,77.126 65.5,76.5C65.527,78.199 66.194,79.533 67.5,80.5C64.219,80.42 61.219,81.087 58.5,82.5L56.5,82.5C59.825,78.837 63.825,76.17 68.5,74.5C66.31,70.598 64.31,66.598 62.5,62.5C62.5,61.833 62.833,61.5 63.5,61.5C64.842,64.166 66.676,66.499 69,68.5C70.017,65.972 71.184,65.972 72.5,68.5C73.48,65.914 73.813,63.247 73.5,60.5Z" style="fill:rgb(250,249,243);"/>
            </g>
            <g transform="matrix(14.128,0,0,14.128,-532.732,-43.8221)">
                <path d="M68.5,82.5C68.672,81.508 68.338,80.842 67.5,80.5C66.194,79.533 65.527,78.199 65.5,76.5C69.375,77.126 71.209,75.459 71,71.5C73.292,71.649 75.792,72.149 78.5,73C78.704,75.621 78.704,78.455 78.5,81.5C75.921,81.083 73.754,81.75 72,83.5C70.989,82.663 69.822,82.33 68.5,82.5Z" style="fill:rgb(246,254,254);"/>
            </g>
            <g transform="matrix(14.128,0,0,14.128,-532.732,-43.8221)">
                <rect x="51.5" y="80.5" width="3" height="4" style="fill:rgb(253,246,213);"/>
            </g>
            <g transform="matrix(14.128,0,0,14.128,-532.732,-43.8221)">
                <path d="M56.5,82.5L65.5,82.5C65.508,86.187 63.841,88.52 60.5,89.5C59.167,90.5 59.167,91.5 60.5,92.5C60.821,94.048 61.821,94.715 63.5,94.5C60.853,95.959 58.687,95.292 57,92.5C56.283,93.451 55.449,93.617 54.5,93C53.773,90.168 52.773,87.335 51.5,84.5L54.5,84.5C55.833,84.5 56.5,83.833 56.5,82.5Z" style="fill:rgb(252,236,232);"/>
            </g>
            <g transform="matrix(14.128,0,0,14.128,-532.732,-43.8221)">
                <path d="M67.5,80.5C68.338,80.842 68.672,81.508 68.5,82.5C69.466,84.057 70.8,85.39 72.5,86.5C73.386,85.675 73.719,84.675 73.5,83.5L76.5,83.5L76.5,86.5C73.918,88.583 73.918,90.917 76.5,93.5C75.349,94.731 74.183,94.731 73,93.5C72.36,95.543 72.86,97.21 74.5,98.5L69.5,98.5C69.195,95.993 69.029,93.326 69,90.5C68.251,92.333 67.251,93.999 66,95.5C65.329,94.748 64.496,94.414 63.5,94.5C61.821,94.715 60.821,94.048 60.5,92.5L63.5,92.5L63.5,89.5L60.5,89.5C63.841,88.52 65.508,86.187 65.5,82.5L58.5,82.5C61.219,81.087 64.219,80.42 67.5,80.5Z" style="fill:rgb(250,242,237);"/>
            </g>
            <g transform="matrix(14.128,0,0,14.128,-532.732,-43.8221)">
                <path d="M92.5,86.5C89.452,86.506 88.952,85.506 91,83.5C92.039,84.244 92.539,85.244 92.5,86.5Z" style="fill:rgb(255,252,204);"/>
            </g>
            <g transform="matrix(14.128,0,0,14.128,-532.732,-43.8221)">
                <path d="M92.5,87.5C93.602,89.092 92.935,89.925 90.5,90C90.957,90.414 91.291,90.914 91.5,91.5C89.298,93.295 88.131,95.629 88,98.5C87.667,97.5 87.333,96.5 87,95.5C86.581,96.672 85.915,97.672 85,98.5C83.052,97.891 81.218,97.224 79.5,96.5L84.5,96.5L84.5,90.5C84.825,88.868 85.825,87.868 87.5,87.5C89.253,88.579 90.919,88.579 92.5,87.5Z" style="fill:rgb(251,237,235);"/>
            </g>
            <g transform="matrix(14.128,0,0,14.128,-532.732,-43.8221)">
                <path d="M60.5,89.5L63.5,89.5L63.5,92.5L60.5,92.5C59.167,91.5 59.167,90.5 60.5,89.5Z" style="fill:rgb(254,249,214);"/>
            </g>
            <g transform="matrix(14.128,0,0,14.128,-532.732,-43.8221)">
                <path d="M9.312,70.505C9.374,74.277 26.023,91.739 30.5,92C29.349,94.465 28.349,96.965 27.5,99.5C27.011,100.995 26.345,102.329 25.5,103.5C25.21,100.215 25.877,97.215 27.5,94.5C27.719,93.325 27.386,92.325 26.5,91.5C23.121,89.144 19.455,87.311 15.5,86C13.734,85.722 8.879,72.56 9.312,70.505Z" style="fill:rgb(255,183,197);"/>
            </g>
            <g transform="matrix(14.128,0,0,14.128,-532.732,-43.8221)">
                <path d="M76.5,86.5C77.728,87.307 78.728,88.307 79.5,89.5C78.933,91.03 78.267,92.53 77.5,94C78.094,94.464 78.761,94.631 79.5,94.5L79.5,96.5C78.839,97.718 78.172,99.051 77.5,100.5C76.473,99.209 75.473,99.209 74.5,100.5L74.5,98.5C72.86,97.21 72.36,95.543 73,93.5C74.183,94.731 75.349,94.731 76.5,93.5C73.918,90.917 73.918,88.583 76.5,86.5Z" style="fill:rgb(252,236,234);"/>
            </g>
            <g transform="matrix(14.128,0,0,14.128,-532.732,-43.8221)">
                <path d="M61.5,130.5C59.026,132.24 56.359,133.74 53.5,135C47.782,135.74 42.115,135.573 36.5,134.5C33.832,131.868 30.665,129.868 27,128.5C24.009,129.569 23.956,113.413 25.5,103.5C26.345,102.329 27.011,100.995 27.5,99.5C28.962,98.542 30.295,97.376 31.5,96C30.346,95.086 30.513,94.253 32,93.5C32.996,96.456 33.496,99.456 33.5,102.5C35.201,102.966 36.701,102.966 38,102.5C37.576,99.93 37.743,97.597 38.5,95.5C39.045,100.978 39.879,106.311 41,111.5C44.071,110.793 46.738,111.793 49,114.5C50.566,115.061 51.899,114.394 53,112.5C53.116,117.02 55.449,119.353 60,119.5C60.333,119.167 60.667,118.833 61,118.5C62.044,119.623 62.71,120.956 63,122.5C64.767,121.183 66.101,119.516 67,117.5C68.205,118.071 69.372,118.738 70.5,119.5C69.5,121.5 68.5,123.5 67.5,125.5C65.659,126.23 63.825,126.897 62,127.5C61.517,128.448 61.35,129.448 61.5,130.5Z" style="fill:rgb(251,236,252);"/>
            </g>
            <g transform="matrix(14.128,0,0,14.128,-532.732,-43.8221)">
                <path d="M84.5,90.5L84.5,96.5L79.5,96.5L79.5,94.5C79.328,93.508 79.662,92.842 80.5,92.5C81.183,90.824 82.517,90.157 84.5,90.5Z" style="fill:rgb(251,240,222);"/>
            </g>
            <g transform="matrix(14.128,0,0,14.128,-532.732,-43.8221)">
                <path d="M80.5,92.5C81.675,92.281 82.675,92.614 83.5,93.5C81.948,94.798 80.948,94.465 80.5,92.5Z" style="fill:rgb(254,253,209);"/>
            </g>
            <g transform="matrix(14.128,0,0,14.128,-532.732,-43.8221)">
                <path d="M126.5,110.5C128.074,112.102 128.741,114.102 128.5,116.5C127.262,114.786 126.595,112.786 126.5,110.5Z" style="fill:rgb(222,245,200);fill-opacity:0.07;"/>
            </g>
            <g transform="matrix(14.128,0,0,14.128,-532.732,-43.8221)">
                <path d="M20.5,124.5C22.213,125.635 22.88,127.302 22.5,129.5C21.462,128.07 20.796,126.403 20.5,124.5Z" style="fill:rgb(239,223,214);fill-opacity:0.87;"/>
            </g>
            <g transform="matrix(14.128,0,0,14.128,-532.732,-43.8221)">
                <path d="M119.961,114.45C120.149,117.492 120.284,121.328 119.319,123.98C118.611,125.925 118.604,128.095 117.926,130.081C114.678,132.323 111.852,132.68 111.873,136.946C103.814,139.309 94.474,138.705 86.5,133.5C81.22,131.55 73.195,130.602 70.475,125.885C68.293,123.087 72.485,118.368 75,116.5C78.227,117.911 81.893,119.245 86,120.5C87,119.5 88,118.5 89,117.5C89.667,118.833 90.333,118.833 91,117.5C91.333,118.167 91.667,118.833 92,119.5C94.112,117.172 94.945,114.672 94.5,112C96.425,110.405 98.425,110.238 100.5,111.5C101.941,110.135 103.274,108.635 104.5,107C106.101,106.727 107.601,106.227 109,105.5C109.333,106.167 109.667,106.833 110,107.5C110.494,105.866 110.66,104.199 110.5,102.5C114.738,102.712 116.405,104.712 115.5,108.5C116.66,110.711 118.454,112.661 119.961,114.45Z" style="fill:rgb(251,236,252);"/>
            </g>
            <g transform="matrix(14.128,0,0,14.128,-532.732,-43.8221)">
                <path d="M69.5,98.5L70.5,98.5C71.167,102.5 71.833,102.5 72.5,98.5L74.5,98.5L74.5,100.5C73.448,102.256 71.781,102.923 69.5,102.5L69.5,98.5Z" style="fill:rgb(251,241,224);"/>
            </g>
            <g transform="matrix(14.128,0,0,14.128,-532.732,-43.8221)">
                <path d="M70.5,98.5L72.5,98.5C71.833,102.5 71.167,102.5 70.5,98.5Z" style="fill:rgb(255,253,212);"/>
            </g>
            <g transform="matrix(14.4329,0,0,15.4743,-571.301,-100.99)">
                <path d="M126.941,44.288C124.873,43.341 107.18,42.613 100.5,44.5C100.918,43.778 101.584,43.278 102.5,43C105.833,42.833 109.167,42.667 112.5,42.5C117.437,42.3 122.545,42.755 126.941,44.288Z" style="fill:rgb(255,183,197);"/>
            </g>
            <g transform="matrix(14.128,0,0,14.128,-532.732,-43.8221)">
                <path d="M65.5,129.5C65.047,130.458 64.381,131.292 63.5,132C60.352,133.076 57.352,134.409 54.5,136C48.047,137.508 41.251,138.716 37.5,136C36.944,135.617 36.611,135.117 36.5,134.5C42.115,135.573 47.782,135.74 53.5,135C56.359,133.74 59.026,132.24 61.5,130.5C62.833,130.167 64.167,129.833 65.5,129.5Z" style="fill:rgb(252,228,243);"/>
            </g>
            <g transform="matrix(14.128,0,0,14.128,-532.732,-43.8221)">
                <path d="M86.241,5.909C91.511,6.729 101.753,23.744 101.318,33.731C101.271,34.798 101.273,35.689 101.27,36.442C101.265,38.239 101.24,39.252 100.5,40C107.071,33.01 137.413,39.783 141.5,47.5C141.614,50.11 140.437,52.396 140.468,54.28C141.685,54.422 144.807,52.95 145.797,53.902C147.482,54.808 147.105,59.182 145.288,64.738C141.076,77.613 129.131,96.832 117.178,93.945C126.697,96.853 129.416,127.58 120.5,135.5L116.5,135.5L116.5,139.5C99.531,149.497 70.191,134.012 72.349,129.682C70.822,134.711 53.469,146.775 32.5,140.5C31.032,139.221 30.365,137.554 30.5,135.5L24.5,135.5C17.468,133.448 17.298,91.384 24.036,93.772C24.707,93.019 27.618,95.105 28.614,95.19C24.85,98.632 23.856,127.102 27,128.5C29.22,130.318 34.261,127.323 35.362,128.148C36.794,129.221 36.379,134.555 36.935,134.938C48.214,140.825 73.356,125.745 72.283,123.09C75.002,127.807 81.22,131.55 86.5,133.5C88.277,134.6 90.277,135.434 92.5,136C99.186,137.948 105.505,138.057 111.5,136.5L111.5,130.5C113.735,130.795 115.735,130.461 117.5,129.5C119.152,124.659 119.818,119.659 119.5,114.5C119.538,111.193 118.872,108.026 117.5,105C114.888,100.579 112.555,96.08 110.5,91.5C116.533,88.166 122.533,84.833 128.5,81.5C133.024,78.138 136.357,73.804 138.5,68.5C139.557,64.319 142.536,60.802 140.893,57.704C140.929,58.815 135.6,59.517 135.562,59.217C135.267,56.851 137.011,53.191 136.715,50.824C134.13,48.141 130.084,45.111 126.378,44.392C121.982,42.859 117.437,42.3 112.5,42.5C109.167,42.667 105.833,42.833 102.5,43C101.584,43.278 100.918,43.778 100.5,44.5L96.5,44.5C96.666,38.491 95.635,32.553 95.136,26.562C94.528,24.996 94.559,23.6 93.5,22.5C90.528,15.212 85.672,9.799 78.311,7.087C76.418,7.595 74.607,9.008 73.5,10.5C73.586,9.504 73.252,8.671 72.5,8C76.839,3.015 85.158,5.949 86.241,5.909Z" style="fill:rgb(255,183,197);"/>
            </g>
            <g transform="matrix(14.128,0,0,14.128,-532.732,-43.8221)">
                <path d="M66.5,145.5C65.713,147.104 64.38,147.771 62.5,147.5C63.514,146.326 64.847,145.66 66.5,145.5Z" style="fill:rgb(219,237,198);fill-opacity:0.11;"/>
            </g>
            <g transform="matrix(14.128,0,0,14.128,-532.732,-43.8221)">
                <path d="M28.5,144.5C30.886,144.259 32.886,144.925 34.5,146.5C35.263,147.268 36.263,147.768 37.5,148C44.158,148.5 50.825,148.666 57.5,148.5L61.5,148.5C60.167,149.167 58.833,149.833 57.5,150.5L41.5,150.5C38.977,149.616 36.31,148.782 33.5,148C32.113,146.317 30.447,145.15 28.5,144.5Z" style="fill:rgb(218,234,198);fill-opacity:0.08;"/>
            </g>
            <g transform="matrix(14.128,0,0,14.128,-532.732,-43.8221)">
                <path d="M120.5,144.5L124.5,144.5C122.691,145.481 121.357,146.981 120.5,149C118.942,149.21 117.609,149.71 116.5,150.5L97.5,150.5C93.501,149.669 89.835,148.003 86.5,145.5C88.565,145.517 90.565,145.85 92.5,146.5C94.811,148.068 97.478,148.902 100.5,149C106.891,149.758 113.224,149.424 119.5,148C120.337,146.989 120.67,145.822 120.5,144.5Z" style="fill:rgb(219,235,199);fill-opacity:0.13;"/>
            </g>
        </g>
        <g transform="matrix(0.117861,-0.0126985,0.0126985,0.117861,476.65,52.4029)">
            <g transform="matrix(14.128,0,0,14.128,-532.732,-43.8221)">
                <path d="M93.5,22.5C93.5,23.5 94.427,24.697 94.427,25.697C92.37,26.413 89.277,26.883 87,27.5C86.667,26.833 86.333,26.167 86,25.5C82.22,24.854 78.553,25.52 75,27.5C73.667,26.167 72.333,26.167 71,27.5C70.667,26.833 70.333,26.167 70,25.5C69.333,26.833 68.667,26.833 68,25.5C66.597,27.198 64.764,27.698 62.5,27C61.845,28.487 60.845,29.653 59.5,30.5C56.914,29.683 53.914,29.683 50.5,30.5C50.307,26.752 51.307,23.418 53.5,20.5C53.144,17.127 62.18,6.42 65.315,5.42C66.9,5.964 69.725,10.932 71.14,11.721C72.431,11.958 73.158,11.047 73.867,10.143C74.975,8.65 75.716,7.477 77.608,6.969C83.462,3.684 90.274,14.203 93.5,22.5Z" style="fill:rgb(251,236,251);"/>
            </g>
            <g transform="matrix(14.128,0,0,14.128,-532.732,-43.8221)">
                <path d="M70.5,11.5C69.085,10.711 67.368,7.192 65.776,7.558C63.104,8.172 60.812,11.075 58.5,13.5C59.702,11.608 61.035,9.774 62.5,8C65.726,4.965 68.822,7.334 70.5,11.5Z" style="fill:rgb(255,183,197);"/>
            </g>
            <g transform="matrix(14.128,0,0,14.128,-532.732,-43.8221)">
                <path d="M87.5,8.5C88.5,9.167 89.5,9.833 90.5,10.5C92.262,11.262 93.262,12.596 93.5,14.5C90.492,13.363 88.492,11.363 87.5,8.5Z" style="fill:rgb(244,219,220);"/>
            </g>
            <g transform="matrix(14.128,0,0,14.128,-532.732,-43.8221)">
                <path d="M98.5,19.5C99.906,19.973 100.573,20.973 100.5,22.5C99.833,22.167 99.167,21.833 98.5,21.5L98.5,19.5Z" style="fill:rgb(227,245,206);fill-opacity:0.09;"/>
            </g>
            <g transform="matrix(14.128,0,0,14.128,-532.732,-43.8221)">
                <path d="M94.193,25.402C94.961,26.164 94.768,27.263 95,28.5C95.499,33.823 95.666,39.156 95.5,44.5C92.701,44.277 90.034,44.11 87.5,44C86.36,43.259 86.36,42.426 87.5,41.5C85.407,40.303 84.24,38.969 84,37.5C82.715,37.95 81.548,38.617 80.5,39.5C78.826,38.12 77.16,36.787 75.5,35.5C73.154,36.09 70.654,36.09 68,35.5C64.651,34.97 62.151,36.136 60.5,39C61,39.5 61.5,40 62,40.5C64.841,39.494 67.341,39.494 69.5,40.5C65.154,39.914 61.654,41.581 59,45.5C58.692,44.692 58.192,44.025 57.5,43.5C57.511,44.442 57.011,45.108 56,45.5C55.228,45.355 54.561,45.022 54,44.5C52.887,45.76 52.72,46.927 53.5,48C50.738,49.077 49.072,48.244 48.5,45.5C49.649,45.209 50.316,44.376 50.5,43C49.265,38.777 49.265,34.61 50.5,30.5C53.914,29.683 56.914,29.683 59.5,30.5C60.845,29.653 61.845,28.487 62.5,27C64.764,27.698 66.597,27.198 68,25.5C68.667,26.833 69.333,26.833 70,25.5C70.333,26.167 70.667,26.833 71,27.5C72.333,26.167 73.667,26.167 75,27.5C78.553,25.52 82.22,24.854 86,25.5C86.333,26.167 86.667,26.833 87,27.5C89.277,26.883 92.137,26.118 94.193,25.402Z" style="fill:rgb(251,236,252);"/>
            </g>
            <g transform="matrix(14.128,0,0,14.128,-532.732,-43.8221)">
                <path d="M53.5,20.5C51.307,23.418 49.265,38.777 50.5,43C50.316,44.376 49.649,45.209 48.5,45.5L47.5,45.5C39.458,42.596 31.125,41.929 22.5,43.5C22.918,42.778 23.584,42.278 24.5,42C31.863,41.464 39.196,41.797 46.5,43C47.416,43.374 45.75,42.374 46.5,43C41.716,40.327 47.318,39.168 47.5,36.5C47.621,35.106 47.954,33.772 48.5,32.5C48.043,31.703 47.376,31.369 46.5,31.5L46.5,25.5C47.496,25.414 48.329,25.748 49,26.5C48.941,23.157 50.441,21.157 53.5,20.5Z" style="fill:rgb(255,183,197);"/>
            </g>
            <g transform="matrix(14.128,0,0,14.128,-532.732,-43.8221)">
                <path d="M95.5,44.5C95.369,45.376 95.703,46.043 96.5,46.5C97.417,45.873 98.417,45.539 99.5,45.5C100.632,48.926 102.632,51.76 105.5,54C104.978,54.561 104.645,55.228 104.5,56C106.002,57.752 107.002,59.752 107.5,62C108.646,62.759 109.646,63.426 110.5,64C109.167,65.667 109.167,67.333 110.5,69C110.095,69.945 109.428,70.612 108.5,71C110.639,76.61 108.972,81.61 103.5,86C104.328,86.915 105.328,87.581 106.5,88C105.464,89.617 104.297,89.784 103,88.5C101.623,90.754 100.123,92.921 98.5,95C99.448,95.483 100.448,95.65 101.5,95.5C101.587,98.598 101.087,98.932 100,96.5C97.985,98.917 95.985,100.584 94,101.5C93.667,100.5 93.333,99.5 93,98.5C90.442,103.767 86.442,106.101 81,105.5C79.371,106.547 77.704,107.547 76,108.5C74.249,107.826 72.583,107.493 71,107.5C70.374,109.991 69.541,109.991 68.5,107.5C67.808,108.025 67.308,108.692 67,109.5C65.654,106.751 64.32,106.417 63,108.5C62.259,105.05 60.259,102.717 57,101.5C56.805,103.207 56.805,104.874 57,106.5C54.549,104.869 54.049,103.036 55.5,101C53.566,99.647 51.733,98.147 50,96.5C49.259,97.641 48.426,97.641 47.5,96.5C46.205,94.672 45.205,92.672 44.5,90.5C44.089,91.262 43.923,92.262 44,93.5C42.984,92.366 42.317,92.699 42,94.5C40.513,93.747 40.346,92.914 41.5,92C38.833,91.333 38.833,90.667 41.5,90C40.12,88.676 39.786,87.343 40.5,86C39.782,83.539 39.115,81.039 38.5,78.5C38.937,72.385 38.937,66.385 38.5,60.5C39.529,60.704 40.529,60.204 41.5,59C40.5,58.667 39.5,58.333 38.5,58C39.833,57 39.833,56 38.5,55C38.833,54.833 39.167,54.667 39.5,54.5C42.49,60.015 43.99,59.682 44,53.5C44.654,54.696 45.154,54.696 45.5,53.5C44.515,51.902 44.349,50.235 45,48.5C45.667,47.167 46.333,47.167 47,48.5C47.483,47.552 47.65,46.552 47.5,45.5L48.5,45.5C49.072,48.244 50.738,49.077 53.5,48C52.72,46.927 52.887,45.76 54,44.5C54.561,45.022 55.228,45.355 56,45.5C57.011,45.108 57.511,44.442 57.5,43.5C58.192,44.025 58.692,44.692 59,45.5C61.654,41.581 65.154,39.914 69.5,40.5C67.341,39.494 64.841,39.494 62,40.5C61.5,40 61,39.5 60.5,39C62.151,36.136 64.651,34.97 68,35.5C70.654,36.09 73.154,36.09 75.5,35.5C77.16,36.787 78.826,38.12 80.5,39.5C81.548,38.617 82.715,37.95 84,37.5C84.24,38.969 85.407,40.303 87.5,41.5C86.36,42.426 86.36,43.259 87.5,44C90.034,44.11 92.701,44.277 95.5,44.5Z" style="fill:rgb(251,236,252);"/>
            </g>
            <g transform="matrix(14.128,0,0,14.128,-532.732,-43.8221)">
                <path d="M122.5,39.5C124.565,39.517 126.565,39.85 128.5,40.5C130.403,40.796 132.07,41.463 133.5,42.5C129.521,42.258 125.854,41.258 122.5,39.5Z" style="fill:rgb(245,219,220);fill-opacity:0.92;"/>
            </g>
            <g transform="matrix(14.128,0,0,14.128,-532.732,-43.8221)">
                <path d="M14.5,40.5C14.027,41.906 13.027,42.573 11.5,42.5C11.973,41.094 12.973,40.427 14.5,40.5Z" style="fill:rgb(229,241,207);fill-opacity:0.24;"/>
            </g>
            <g transform="matrix(14.128,0,0,14.128,-532.732,-43.8221)">
                <path d="M47.5,45.5C47.65,46.552 47.483,47.552 47,48.5C46.333,47.167 45.667,47.167 45,48.5C44.349,50.235 44.515,51.902 45.5,53.5C45.154,54.696 44.654,54.696 44,53.5C43.99,59.682 42.49,60.015 39.5,54.5C39.167,54.667 38.833,54.833 38.5,55C39.833,56 39.833,57 38.5,58C39.5,58.333 40.5,58.667 41.5,59C40.529,60.204 39.529,60.704 38.5,60.5C38.937,66.385 38.937,72.385 38.5,78.5C39.115,81.039 39.782,83.539 40.5,86C39.786,87.343 40.12,88.676 41.5,90C38.833,90.667 38.833,91.333 41.5,92C40.346,92.914 40.513,93.747 42,94.5C42.317,92.699 42.984,92.366 44,93.5C43.923,92.262 44.089,91.262 44.5,90.5C45.205,92.672 46.205,94.672 47.5,96.5C48.426,97.641 49.259,97.641 50,96.5C51.733,98.147 53.566,99.647 55.5,101C54.049,103.036 54.549,104.869 57,106.5C56.805,104.874 56.805,103.207 57,101.5C60.259,102.717 62.259,105.05 63,108.5C64.32,106.417 65.654,106.751 67,109.5C67.308,108.692 67.808,108.025 68.5,107.5C69.541,109.991 70.374,109.991 71,107.5C72.583,107.493 74.249,107.826 76,108.5C77.704,107.547 79.371,106.547 81,105.5C86.442,106.101 90.442,103.767 93,98.5C93.333,99.5 93.667,100.5 94,101.5C95.985,100.584 97.985,98.917 100,96.5C101.087,98.932 101.587,98.598 101.5,95.5C100.448,95.65 99.448,95.483 98.5,95C100.123,92.921 101.623,90.754 103,88.5C104.297,89.784 105.464,89.617 106.5,88C105.328,87.581 104.328,86.915 103.5,86C108.972,81.61 110.639,76.61 108.5,71C109.428,70.612 110.095,69.945 110.5,69C109.167,67.333 109.167,65.667 110.5,64C109.646,63.426 108.646,62.759 107.5,62C107.002,59.752 106.002,57.752 104.5,56C104.645,55.228 104.978,54.561 105.5,54C102.632,51.76 100.632,48.926 99.5,45.5C99.228,45.239 98.938,43.582 100.5,44.5C107.131,42.982 113.798,42.474 120.5,43.5C119.282,44.161 117.949,44.828 116.5,45.5C117.415,46.328 118.081,47.328 118.5,48.5C117.669,50.473 117.502,52.473 118,54.5C119.147,53.542 120.147,53.875 121,55.5C121.333,54.833 121.667,54.167 122,53.5C123.691,55.709 123.524,57.542 121.5,59C122.833,59.667 122.833,60.333 121.5,61C122.167,61.333 122.833,61.667 123.5,62C122.167,66 122.167,70 123.5,74C121.699,74.317 121.366,74.984 122.5,76C121.743,77.512 120.743,78.846 119.5,80C121.01,80.85 122.51,81.683 124,82.5C124.945,82.095 125.612,81.428 126,80.5C126.671,81.252 127.504,81.586 128.5,81.5C122.533,84.833 116.533,88.166 110.5,91.5C112.555,96.08 114.888,100.579 117.5,105C118.872,108.026 119.538,111.193 119.5,114.5C117.993,112.711 116.66,110.711 115.5,108.5C116.405,104.712 114.738,102.712 110.5,102.5C110.66,104.199 110.494,105.866 110,107.5C109.667,106.833 109.333,106.167 109,105.5C107.601,106.227 106.101,106.727 104.5,107C103.274,108.635 101.941,110.135 100.5,111.5C98.425,110.238 96.425,110.405 94.5,112C94.945,114.672 94.112,117.172 92,119.5C91.667,118.833 91.333,118.167 91,117.5C90.333,118.833 89.667,118.833 89,117.5C88,118.5 87,119.5 86,120.5C81.893,119.245 78.227,117.911 75,116.5C72.485,118.368 72.318,120.702 74.5,123.5C73.448,123.351 72.448,123.517 71.5,124C70.077,126.531 68.077,128.365 65.5,129.5C64.167,129.833 62.833,130.167 61.5,130.5C61.35,129.448 61.517,128.448 62,127.5C63.825,126.897 65.659,126.23 67.5,125.5C68.5,123.5 69.5,121.5 70.5,119.5C69.372,118.738 68.205,118.071 67,117.5C66.101,119.516 64.767,121.183 63,122.5C62.71,120.956 62.044,119.623 61,118.5C60.667,118.833 60.333,119.167 60,119.5C55.449,119.353 53.116,117.02 53,112.5C51.899,114.394 50.566,115.061 49,114.5C46.738,111.793 44.071,110.793 41,111.5C39.879,106.311 39.045,100.978 38.5,95.5C37.743,97.597 37.576,99.93 38,102.5C36.701,102.966 35.201,102.966 33.5,102.5C33.496,99.456 32.996,96.456 32,93.5C30.513,94.253 30.346,95.086 31.5,96C30.295,97.376 28.962,98.542 27.5,99.5C28.349,96.965 28.116,94.543 29.268,92.078C26.107,90.514 24.34,88.602 21.5,86.5C24.097,85.405 26.597,85.738 29,87.5C29.218,84.574 29.718,81.741 30.5,79C28.559,78.257 26.726,78.424 25,79.5C21.867,77.586 21.7,75.419 24.5,73C22.95,67.117 22.284,61.284 22.5,55.5C25.298,55.447 27.798,54.781 30,53.5C30.333,55.167 30.667,56.833 31,58.5C32.284,57.428 32.617,56.095 32,54.5C33.016,53.366 33.683,53.699 34,55.5C34.274,53.671 35.107,52.171 36.5,51C36.167,50.667 35.833,50.333 35.5,50C37.607,48.737 38.607,46.903 38.5,44.5C30.954,44.038 23.621,44.705 16.5,46.5C18.182,44.993 20.182,43.993 22.5,43.5C31.125,41.929 39.458,42.596 47.5,45.5Z" style="fill:rgb(251,236,252);"/>
            </g>
            <g transform="matrix(14.128,0,0,14.128,-532.732,-43.8221)">
                <path d="M94.5,86.5C94.548,83.708 93.215,81.875 90.5,81C91.38,79.644 91.714,78.144 91.5,76.5C92.552,76.65 93.552,76.483 94.5,76C93.884,72.515 93.384,68.682 93,64.5C91.261,62.957 89.761,61.29 88.5,59.5C84.71,56.286 81.21,53.286 78,50.5C75.593,50.673 73.26,50.673 71,50.5C70.529,52.246 69.862,53.913 69,55.5C67.244,54.015 66.077,54.348 65.5,56.5C60.974,54.335 58.141,55.668 57,60.5C56.283,59.549 55.449,59.383 54.5,60C55.532,63.295 54.532,65.961 51.5,68C53.869,70.326 55.203,73.159 55.5,76.5C52.888,77.096 52.888,77.929 55.5,79C53.942,79.21 52.609,79.71 51.5,80.5L51.5,83.5C50.278,85.54 48.611,85.54 46.5,83.5C46.709,82.914 47.043,82.414 47.5,82C46.426,81.261 45.759,80.261 45.5,79C46.422,76.534 46.422,74.201 45.5,72C45.863,68.831 47.197,66.164 49.5,64C48.5,63 47.5,62 46.5,61C47.449,60.383 48.283,60.549 49,61.5C48.843,57.173 50.51,53.84 54,51.5C54.216,49.616 54.883,47.949 56,46.5C60.264,46.928 64.43,46.928 68.5,46.5C69.519,45.313 70.686,44.313 72,43.5C76.458,45.226 80.958,46.059 85.5,46C85.167,46.333 84.833,46.667 84.5,47C86.091,48.046 87.591,49.213 89,50.5C90.667,49.66 90.833,50.16 89.5,52C90.931,52.465 92.098,53.299 93,54.5C93.333,53.167 93.667,51.833 94,50.5C95.166,51.834 95.333,53.5 94.5,55.5C94.833,56.5 95.167,57.5 95.5,58.5C96.965,57.391 97.965,57.891 98.5,60C96.549,63.24 97.216,66.24 100.5,69C99.366,70.016 99.699,70.683 101.5,71C99.875,71.853 99.542,72.853 100.5,74C99.944,76.237 98.944,78.237 97.5,80C97.847,81.569 98.014,83.402 98,85.5C96.989,86.337 95.822,86.67 94.5,86.5Z" style="fill:rgb(251,236,252);"/>
            </g>
            <g transform="matrix(14.128,0,0,14.128,-532.732,-43.8221)">
                <path d="M120.5,43.5C122.428,43.212 124.393,43.513 126.5,44.5C130.401,44.872 133.532,46.597 136,49.5C138.74,51.153 137.577,54.45 137,57.5C143.398,55.765 142.39,61.505 138.5,68.5C136.357,73.804 133.024,78.138 128.5,81.5C127.504,81.586 126.671,81.252 126,80.5C125.612,81.428 124.945,82.095 124,82.5C122.51,81.683 121.01,80.85 119.5,80C120.743,78.846 121.743,77.512 122.5,76C121.366,74.984 121.699,74.317 123.5,74C122.167,70 122.167,66 123.5,62C122.833,61.667 122.167,61.333 121.5,61C122.833,60.333 122.833,59.667 121.5,59C123.524,57.542 123.691,55.709 122,53.5C121.667,54.167 121.333,54.833 121,55.5C120.147,53.875 119.147,53.542 118,54.5C117.502,52.473 117.669,50.473 118.5,48.5C118.081,47.328 117.415,46.328 116.5,45.5C117.949,44.828 119.282,44.161 120.5,43.5Z" style="fill:rgb(251,236,252);"/>
            </g>
            <g transform="matrix(14.128,0,0,14.128,-532.732,-43.8221)">
                <path d="M93.5,22.5C94.559,23.6 95.392,24.934 96,26.5C96.5,32.491 96.666,38.491 96.5,44.5L100.5,44.5C100.5,45.167 97.417,45.873 96.5,46.5C95.703,46.043 95.369,45.376 95.5,44.5C95.666,39.156 95.499,33.823 95,28.5C94.768,27.263 93.5,23.5 93.5,22.5Z" style="fill:rgb(255,183,197);"/>
            </g>
            <g transform="matrix(14.128,0,0,14.128,-532.732,-43.8221)">
                <path d="M21.5,86.5C18.588,85.571 15.921,84.238 13.5,82.5C13.167,81.833 12.833,81.167 12.5,80.5C10.945,77.06 9.112,73.727 7,70.5C6.037,66.851 5.775,63.598 7.738,60.58C9.301,60.25 11.12,59.461 11.5,58C10.756,55.845 9.756,53.845 8.5,52C10.527,49.124 14.164,45.487 17.471,44.696C24.592,42.901 30.954,44.038 38.5,44.5C38.607,46.903 37.607,48.737 35.5,50C35.833,50.333 36.167,50.667 36.5,51C35.107,52.171 34.274,53.671 34,55.5C33.683,53.699 33.016,53.366 32,54.5C32.617,56.095 32.284,57.428 31,58.5C30.667,56.833 30.333,55.167 30,53.5C27.798,54.781 25.298,55.447 22.5,55.5C22.284,61.284 22.95,67.117 24.5,73C21.7,75.419 21.867,77.586 25,79.5C26.726,78.424 28.559,78.257 30.5,79C29.718,81.741 29.218,84.574 29,87.5C26.597,85.738 24.097,85.405 21.5,86.5Z" style="fill:rgb(251,236,252);"/>
            </g>
            <g transform="matrix(14.128,0,0,14.128,-532.732,-43.8221)">
                <path d="M142.5,46.5C144.017,49.035 145.35,51.702 146.5,54.5C143.013,53.555 141.68,51.222 142.5,47.5L142.5,46.5Z" style="fill:rgb(225,242,202);fill-opacity:0.03;"/>
            </g>
            <g transform="matrix(14.128,0,0,14.128,-532.732,-43.8221)">
                <path d="M88.5,59.5L87.5,59.5C87.083,58.876 86.416,58.543 85.5,58.5C83.27,59.35 80.937,60.35 78.5,61.5C77.863,60.782 77.863,59.782 78.5,58.5C78.253,57.287 77.586,56.62 76.5,56.5C74.317,55.157 72.317,55.49 70.5,57.5C69.081,56.549 67.415,56.216 65.5,56.5C66.077,54.348 67.244,54.015 69,55.5C69.862,53.913 70.529,52.246 71,50.5C73.26,50.673 75.593,50.673 78,50.5C81.21,53.286 84.71,56.286 88.5,59.5Z" style="fill:rgb(252,235,228);"/>
            </g>
            <g transform="matrix(14.128,0,0,14.128,-532.732,-43.8221)">
                <path d="M65.5,56.5L65.5,61.5L70.5,61.5L70.5,57.5C72.317,55.49 74.317,55.157 76.5,56.5L72.5,56.5C72.232,58.099 72.566,59.432 73.5,60.5C73.813,63.247 73.48,65.914 72.5,68.5C71.184,65.972 70.017,65.972 69,68.5C66.676,66.499 64.842,64.166 63.5,61.5C63.804,60.85 64.137,60.184 64.5,59.5C62.955,58.548 61.288,58.215 59.5,58.5L59.5,62.5L62.5,62.5C64.31,66.598 66.31,70.598 68.5,74.5L62.5,74.5C60.721,76.344 58.388,77.01 55.5,76.5C55.203,73.159 53.869,70.326 51.5,68C54.532,65.961 55.532,63.295 54.5,60C55.449,59.383 56.283,59.549 57,60.5C58.141,55.668 60.974,54.335 65.5,56.5Z" style="fill:rgb(251,237,227);"/>
            </g>
            <g transform="matrix(14.128,0,0,14.128,-532.732,-43.8221)">
                <path d="M79.276,1.186C81.917,2.814 84.808,4.794 87.5,6.5L87.5,8.5C86.417,8.539 85.417,8.873 84.5,9.5C81.001,5.057 77.001,4.557 72.5,8C73.252,8.671 73.586,9.504 73.5,10.5C72.791,11.404 72.245,13.107 70.954,12.87C70.732,12.259 70.472,11.692 70.178,11.174C68.527,8.272 65.789,6.916 62.5,8C61.035,9.774 59.702,11.608 58.5,13.5C56.113,15.258 54.446,17.591 53.5,20.5C50.441,21.157 48.941,23.157 49,26.5C48.329,25.748 47.496,25.414 46.5,25.5C47.819,15.468 64.007,-1.197 67.172,1.696C68.789,2.234 70.178,4.741 71.894,4.87C73.448,2.985 76.829,1.301 79.276,1.186Z" style="fill:rgb(255,183,197);"/>
            </g>
            <g transform="matrix(14.128,0,0,14.128,-532.732,-43.8221)">
                <path d="M46.667,24.982C47.543,24.852 48.043,31.703 48.5,32.5C47.954,33.772 47.621,35.106 47.5,36.5C48.357,39.171 48.857,41.837 49,44.5C48.25,43.874 47.416,43.374 46.5,43C39.196,41.797 31.863,41.464 24.5,42C23.584,42.278 22.918,42.778 22.5,43.5C19.462,43.64 10.011,48.871 8.5,52C9.617,54.179 13.101,56.223 14.078,57.818C13.654,58.932 10.085,59.977 8.5,60.5C7.55,60.813 6.794,61.216 5.794,61.216C4.187,69.4 6.226,75.351 12.5,80.5C12.833,81.167 13.167,81.833 13.5,82.5C14.028,83.721 14.695,84.887 15.5,86C19.455,87.311 23.121,89.144 26.5,91.5C27.386,92.325 27.719,93.325 27.5,94.5C26.504,94.414 25.671,94.748 25,95.5C24.098,97.927 23.264,100.26 22.5,102.5C22.964,100.933 24.062,99.724 24.062,98.057C24.618,96.131 24.198,95.132 23.073,93.824C16.786,99.322 -1.098,72.72 0.425,58.692C0.545,57.59 1.886,57.085 2.843,56.521C3.755,55.984 4.084,56.457 3.332,54.999C2.606,54.749 1.261,52.938 1.48,51.144C1.575,50.364 2.256,49.388 2.955,48.769C4.282,47.593 17.144,38.779 20.97,38.308C28.637,35.999 36.233,36.847 44.5,37.5C44.403,35.329 45.319,26.83 46.667,24.982Z" style="fill:rgb(255,183,197);"/>
            </g>
            <g transform="matrix(14.128,0,0,14.128,-532.732,-43.8221)">
                <path d="M76.5,56.5C76.768,58.099 76.435,59.432 75.5,60.5L73.5,60.5C72.566,59.432 72.232,58.099 72.5,56.5L76.5,56.5Z" style="fill:rgb(254,244,210);"/>
            </g>
            <g transform="matrix(14.128,0,0,14.128,-532.732,-43.8221)">
                <path d="M65.5,56.5C67.415,56.216 69.081,56.549 70.5,57.5L70.5,61.5L65.5,61.5L65.5,56.5Z" style="fill:rgb(250,239,214);"/>
            </g>
            <g transform="matrix(14.128,0,0,14.128,-532.732,-43.8221)">
                <rect x="66.5" y="57.5" width="3" height="3" style="fill:rgb(254,251,206);"/>
            </g>
            <g transform="matrix(14.128,0,0,14.128,-532.732,-43.8221)">
                <path d="M76.5,56.5C77.586,56.62 78.253,57.287 78.5,58.5C77.863,59.782 77.863,60.782 78.5,61.5C80.937,60.35 83.27,59.35 85.5,58.5C86.416,58.543 87.083,58.876 87.5,59.5C86.094,59.973 85.427,60.973 85.5,62.5C82.379,63.288 80.712,65.288 80.5,68.5C79.178,68.33 78.011,68.663 77,69.5C76.741,66.413 76.241,63.413 75.5,60.5C76.435,59.432 76.768,58.099 76.5,56.5Z" style="fill:rgb(251,236,221);"/>
            </g>
            <g transform="matrix(14.128,0,0,14.128,-532.732,-43.8221)">
                <path d="M63.5,61.5C62.833,61.5 62.5,61.833 62.5,62.5L59.5,62.5L59.5,58.5C61.288,58.215 62.955,58.548 64.5,59.5C64.137,60.184 63.804,60.85 63.5,61.5Z" style="fill:rgb(253,245,214);"/>
            </g>
            <g transform="matrix(14.128,0,0,14.128,-532.732,-43.8221)">
                <path d="M87.5,59.5L88.5,59.5C88.88,61.698 88.213,63.365 86.5,64.5C86.672,63.508 86.338,62.842 85.5,62.5C85.427,60.973 86.094,59.973 87.5,59.5Z" style="fill:rgb(254,247,211);"/>
            </g>
            <g transform="matrix(14.128,0,0,14.128,-532.732,-43.8221)">
                <path d="M58.5,74.5C57.662,74.158 57.328,73.492 57.5,72.5C58.824,71.15 59.824,71.317 60.5,73C60.164,74.03 59.497,74.53 58.5,74.5Z" style="fill:rgb(254,250,206);"/>
            </g>
            <g transform="matrix(14.128,0,0,14.128,-532.732,-43.8221)">
                <path d="M62.5,74.5C61.039,75.686 59.705,75.686 58.5,74.5C59.497,74.53 60.164,74.03 60.5,73C59.824,71.317 58.824,71.15 57.5,72.5C58.552,70.744 60.219,70.077 62.5,70.5L62.5,74.5Z" style="fill:rgb(251,241,215);"/>
            </g>
            <g transform="matrix(14.128,0,0,14.128,-532.732,-43.8221)">
                <path d="M8.5,60.5C6.537,63.518 10.945,77.06 12.5,80.5C4.603,76.398 3.347,69.037 5.5,60.5L8.5,60.5Z" style="fill:rgb(255,183,197);"/>
            </g>
            <g transform="matrix(14.128,0,0,14.128,-532.732,-43.8221)">
                <path d="M88.5,59.5C89.761,61.29 91.261,62.957 93,64.5C93.384,68.682 93.884,72.515 94.5,76C93.552,76.483 92.552,76.65 91.5,76.5C91.714,78.144 91.38,79.644 90.5,81C93.215,81.875 94.548,83.708 94.5,86.5L92.5,86.5L92.5,87.5C90.919,88.579 89.253,88.579 87.5,87.5C85.825,87.868 84.825,88.868 84.5,90.5C82.517,90.157 81.183,90.824 80.5,92.5C79.662,92.842 79.328,93.508 79.5,94.5C78.761,94.631 78.094,94.464 77.5,94C78.267,92.53 78.933,91.03 79.5,89.5C79.149,87.131 78.982,84.797 79,82.5C79.667,84.5 81,85.833 83,86.5C83.492,85.451 83.326,84.451 82.5,83.5C83.729,82.719 85.062,82.219 86.5,82C84.649,80.316 82.982,78.483 81.5,76.5C82.635,74.538 82.635,72.538 81.5,70.5C83.175,68.469 84.841,66.469 86.5,64.5C88.213,63.365 88.88,61.698 88.5,59.5Z" style="fill:rgb(251,237,229);"/>
            </g>
            <g transform="matrix(14.128,0,0,14.128,-532.732,-43.8221)">
                <path d="M91.5,66.5L91.5,69.5L88.5,69.5C87.596,68.791 87.263,67.791 87.5,66.5L91.5,66.5Z" style="fill:rgb(254,249,210);"/>
            </g>
            <g transform="matrix(14.128,0,0,14.128,-532.732,-43.8221)">
                <path d="M91.5,66.5C92.435,67.568 92.768,68.901 92.5,70.5C90.901,70.768 89.568,70.435 88.5,69.5L91.5,69.5L91.5,66.5Z" style="fill:rgb(252,239,216);"/>
            </g>
            <g transform="matrix(14.128,0,0,14.128,-532.732,-43.8221)">
                <path d="M62.5,74.5L68.5,74.5C63.825,76.17 59.825,78.837 56.5,82.5C56.5,83.833 55.833,84.5 54.5,84.5L54.5,80.5L51.5,80.5C52.609,79.71 53.942,79.21 55.5,79C52.888,77.929 52.888,77.096 55.5,76.5C58.388,77.01 60.721,76.344 62.5,74.5Z" style="fill:rgb(250,244,236);"/>
            </g>
            <g transform="matrix(14.128,0,0,14.128,-532.732,-43.8221)">
                <path d="M73.5,60.5L75.5,60.5C76.241,63.413 76.741,66.413 77,69.5C78.011,68.663 79.178,68.33 80.5,68.5C81.616,66.218 83.427,64.366 85.5,62.5C86.338,62.842 86.672,63.508 86.5,64.5C84.841,66.469 83.175,68.469 81.5,70.5C82.635,72.538 82.635,74.538 81.5,76.5C82.982,78.483 84.649,80.316 86.5,82C85.062,82.219 83.729,82.719 82.5,83.5C83.326,84.451 83.492,85.451 83,86.5C81,85.833 79.667,84.5 79,82.5C78.982,84.797 79.149,87.131 79.5,89.5C78.728,88.307 77.728,87.307 76.5,86.5L76.5,83.5L73.5,83.5C73.719,84.675 73.386,85.675 72.5,86.5C70.8,85.39 69.466,84.057 68.5,82.5C69.822,82.33 70.989,82.663 72,83.5C73.754,81.75 75.921,81.083 78.5,81.5C78.704,78.455 78.704,75.621 78.5,73C75.792,72.149 73.292,71.649 71,71.5C71.209,75.459 69.375,77.126 65.5,76.5C65.527,78.199 66.194,79.533 67.5,80.5C64.219,80.42 61.219,81.087 58.5,82.5L56.5,82.5C59.825,78.837 63.825,76.17 68.5,74.5C66.31,70.598 64.31,66.598 62.5,62.5C62.5,61.833 62.833,61.5 63.5,61.5C64.842,64.166 66.676,66.499 69,68.5C70.017,65.972 71.184,65.972 72.5,68.5C73.48,65.914 73.813,63.247 73.5,60.5Z" style="fill:rgb(250,249,243);"/>
            </g>
            <g transform="matrix(14.128,0,0,14.128,-532.732,-43.8221)">
                <path d="M68.5,82.5C68.672,81.508 68.338,80.842 67.5,80.5C66.194,79.533 65.527,78.199 65.5,76.5C69.375,77.126 71.209,75.459 71,71.5C73.292,71.649 75.792,72.149 78.5,73C78.704,75.621 78.704,78.455 78.5,81.5C75.921,81.083 73.754,81.75 72,83.5C70.989,82.663 69.822,82.33 68.5,82.5Z" style="fill:rgb(246,254,254);"/>
            </g>
            <g transform="matrix(14.128,0,0,14.128,-532.732,-43.8221)">
                <rect x="51.5" y="80.5" width="3" height="4" style="fill:rgb(253,246,213);"/>
            </g>
            <g transform="matrix(14.128,0,0,14.128,-532.732,-43.8221)">
                <path d="M56.5,82.5L65.5,82.5C65.508,86.187 63.841,88.52 60.5,89.5C59.167,90.5 59.167,91.5 60.5,92.5C60.821,94.048 61.821,94.715 63.5,94.5C60.853,95.959 58.687,95.292 57,92.5C56.283,93.451 55.449,93.617 54.5,93C53.773,90.168 52.773,87.335 51.5,84.5L54.5,84.5C55.833,84.5 56.5,83.833 56.5,82.5Z" style="fill:rgb(252,236,232);"/>
            </g>
            <g transform="matrix(14.128,0,0,14.128,-532.732,-43.8221)">
                <path d="M67.5,80.5C68.338,80.842 68.672,81.508 68.5,82.5C69.466,84.057 70.8,85.39 72.5,86.5C73.386,85.675 73.719,84.675 73.5,83.5L76.5,83.5L76.5,86.5C73.918,88.583 73.918,90.917 76.5,93.5C75.349,94.731 74.183,94.731 73,93.5C72.36,95.543 72.86,97.21 74.5,98.5L69.5,98.5C69.195,95.993 69.029,93.326 69,90.5C68.251,92.333 67.251,93.999 66,95.5C65.329,94.748 64.496,94.414 63.5,94.5C61.821,94.715 60.821,94.048 60.5,92.5L63.5,92.5L63.5,89.5L60.5,89.5C63.841,88.52 65.508,86.187 65.5,82.5L58.5,82.5C61.219,81.087 64.219,80.42 67.5,80.5Z" style="fill:rgb(250,242,237);"/>
            </g>
            <g transform="matrix(14.128,0,0,14.128,-532.732,-43.8221)">
                <path d="M92.5,86.5C89.452,86.506 88.952,85.506 91,83.5C92.039,84.244 92.539,85.244 92.5,86.5Z" style="fill:rgb(255,252,204);"/>
            </g>
            <g transform="matrix(14.128,0,0,14.128,-532.732,-43.8221)">
                <path d="M92.5,87.5C93.602,89.092 92.935,89.925 90.5,90C90.957,90.414 91.291,90.914 91.5,91.5C89.298,93.295 88.131,95.629 88,98.5C87.667,97.5 87.333,96.5 87,95.5C86.581,96.672 85.915,97.672 85,98.5C83.052,97.891 81.218,97.224 79.5,96.5L84.5,96.5L84.5,90.5C84.825,88.868 85.825,87.868 87.5,87.5C89.253,88.579 90.919,88.579 92.5,87.5Z" style="fill:rgb(251,237,235);"/>
            </g>
            <g transform="matrix(14.128,0,0,14.128,-532.732,-43.8221)">
                <path d="M60.5,89.5L63.5,89.5L63.5,92.5L60.5,92.5C59.167,91.5 59.167,90.5 60.5,89.5Z" style="fill:rgb(254,249,214);"/>
            </g>
            <g transform="matrix(14.128,0,0,14.128,-532.732,-43.8221)">
                <path d="M9.312,70.505C9.374,74.277 26.023,91.739 30.5,92C29.349,94.465 28.349,96.965 27.5,99.5C27.011,100.995 26.345,102.329 25.5,103.5C25.21,100.215 25.877,97.215 27.5,94.5C27.719,93.325 27.386,92.325 26.5,91.5C23.121,89.144 19.455,87.311 15.5,86C13.734,85.722 8.879,72.56 9.312,70.505Z" style="fill:rgb(255,183,197);"/>
            </g>
            <g transform="matrix(14.128,0,0,14.128,-532.732,-43.8221)">
                <path d="M76.5,86.5C77.728,87.307 78.728,88.307 79.5,89.5C78.933,91.03 78.267,92.53 77.5,94C78.094,94.464 78.761,94.631 79.5,94.5L79.5,96.5C78.839,97.718 78.172,99.051 77.5,100.5C76.473,99.209 75.473,99.209 74.5,100.5L74.5,98.5C72.86,97.21 72.36,95.543 73,93.5C74.183,94.731 75.349,94.731 76.5,93.5C73.918,90.917 73.918,88.583 76.5,86.5Z" style="fill:rgb(252,236,234);"/>
            </g>
            <g transform="matrix(14.128,0,0,14.128,-532.732,-43.8221)">
                <path d="M61.5,130.5C59.026,132.24 56.359,133.74 53.5,135C47.782,135.74 42.115,135.573 36.5,134.5C33.832,131.868 30.665,129.868 27,128.5C24.009,129.569 23.956,113.413 25.5,103.5C26.345,102.329 27.011,100.995 27.5,99.5C28.962,98.542 30.295,97.376 31.5,96C30.346,95.086 30.513,94.253 32,93.5C32.996,96.456 33.496,99.456 33.5,102.5C35.201,102.966 36.701,102.966 38,102.5C37.576,99.93 37.743,97.597 38.5,95.5C39.045,100.978 39.879,106.311 41,111.5C44.071,110.793 46.738,111.793 49,114.5C50.566,115.061 51.899,114.394 53,112.5C53.116,117.02 55.449,119.353 60,119.5C60.333,119.167 60.667,118.833 61,118.5C62.044,119.623 62.71,120.956 63,122.5C64.767,121.183 66.101,119.516 67,117.5C68.205,118.071 69.372,118.738 70.5,119.5C69.5,121.5 68.5,123.5 67.5,125.5C65.659,126.23 63.825,126.897 62,127.5C61.517,128.448 61.35,129.448 61.5,130.5Z" style="fill:rgb(251,236,252);"/>
            </g>
            <g transform="matrix(14.128,0,0,14.128,-532.732,-43.8221)">
                <path d="M84.5,90.5L84.5,96.5L79.5,96.5L79.5,94.5C79.328,93.508 79.662,92.842 80.5,92.5C81.183,90.824 82.517,90.157 84.5,90.5Z" style="fill:rgb(251,240,222);"/>
            </g>
            <g transform="matrix(14.128,0,0,14.128,-532.732,-43.8221)">
                <path d="M80.5,92.5C81.675,92.281 82.675,92.614 83.5,93.5C81.948,94.798 80.948,94.465 80.5,92.5Z" style="fill:rgb(254,253,209);"/>
            </g>
            <g transform="matrix(14.128,0,0,14.128,-532.732,-43.8221)">
                <path d="M126.5,110.5C128.074,112.102 128.741,114.102 128.5,116.5C127.262,114.786 126.595,112.786 126.5,110.5Z" style="fill:rgb(222,245,200);fill-opacity:0.07;"/>
            </g>
            <g transform="matrix(14.128,0,0,14.128,-532.732,-43.8221)">
                <path d="M20.5,124.5C22.213,125.635 22.88,127.302 22.5,129.5C21.462,128.07 20.796,126.403 20.5,124.5Z" style="fill:rgb(239,223,214);fill-opacity:0.87;"/>
            </g>
            <g transform="matrix(14.128,0,0,14.128,-532.732,-43.8221)">
                <path d="M119.961,114.45C120.149,117.492 120.284,121.328 119.319,123.98C118.611,125.925 118.604,128.095 117.926,130.081C114.678,132.323 111.852,132.68 111.873,136.946C103.814,139.309 94.474,138.705 86.5,133.5C81.22,131.55 73.195,130.602 70.475,125.885C68.293,123.087 72.485,118.368 75,116.5C78.227,117.911 81.893,119.245 86,120.5C87,119.5 88,118.5 89,117.5C89.667,118.833 90.333,118.833 91,117.5C91.333,118.167 91.667,118.833 92,119.5C94.112,117.172 94.945,114.672 94.5,112C96.425,110.405 98.425,110.238 100.5,111.5C101.941,110.135 103.274,108.635 104.5,107C106.101,106.727 107.601,106.227 109,105.5C109.333,106.167 109.667,106.833 110,107.5C110.494,105.866 110.66,104.199 110.5,102.5C114.738,102.712 116.405,104.712 115.5,108.5C116.66,110.711 118.454,112.661 119.961,114.45Z" style="fill:rgb(251,236,252);"/>
            </g>
            <g transform="matrix(14.128,0,0,14.128,-532.732,-43.8221)">
                <path d="M69.5,98.5L70.5,98.5C71.167,102.5 71.833,102.5 72.5,98.5L74.5,98.5L74.5,100.5C73.448,102.256 71.781,102.923 69.5,102.5L69.5,98.5Z" style="fill:rgb(251,241,224);"/>
            </g>
            <g transform="matrix(14.128,0,0,14.128,-532.732,-43.8221)">
                <path d="M70.5,98.5L72.5,98.5C71.833,102.5 71.167,102.5 70.5,98.5Z" style="fill:rgb(255,253,212);"/>
            </g>
            <g transform="matrix(14.4329,0,0,15.4743,-571.301,-100.99)">
                <path d="M126.941,44.288C124.873,43.341 107.18,42.613 100.5,44.5C100.918,43.778 101.584,43.278 102.5,43C105.833,42.833 109.167,42.667 112.5,42.5C117.437,42.3 122.545,42.755 126.941,44.288Z" style="fill:rgb(255,183,197);"/>
            </g>
            <g transform="matrix(14.128,0,0,14.128,-532.732,-43.8221)">
                <path d="M65.5,129.5C65.047,130.458 64.381,131.292 63.5,132C60.352,133.076 57.352,134.409 54.5,136C48.047,137.508 41.251,138.716 37.5,136C36.944,135.617 36.611,135.117 36.5,134.5C42.115,135.573 47.782,135.74 53.5,135C56.359,133.74 59.026,132.24 61.5,130.5C62.833,130.167 64.167,129.833 65.5,129.5Z" style="fill:rgb(252,228,243);"/>
            </g>
            <g transform="matrix(14.128,0,0,14.128,-532.732,-43.8221)">
                <path d="M86.241,5.909C91.511,6.729 101.753,23.744 101.318,33.731C101.271,34.798 101.273,35.689 101.27,36.442C101.265,38.239 101.24,39.252 100.5,40C107.071,33.01 137.413,39.783 141.5,47.5C141.614,50.11 140.437,52.396 140.468,54.28C141.685,54.422 144.807,52.95 145.797,53.902C147.482,54.808 147.105,59.182 145.288,64.738C141.076,77.613 129.131,96.832 117.178,93.945C126.697,96.853 129.416,127.58 120.5,135.5L116.5,135.5L116.5,139.5C99.531,149.497 70.191,134.012 72.349,129.682C70.822,134.711 53.469,146.775 32.5,140.5C31.032,139.221 30.365,137.554 30.5,135.5L24.5,135.5C17.468,133.448 17.298,91.384 24.036,93.772C24.707,93.019 27.618,95.105 28.614,95.19C24.85,98.632 23.856,127.102 27,128.5C29.22,130.318 34.261,127.323 35.362,128.148C36.794,129.221 36.379,134.555 36.935,134.938C48.214,140.825 73.356,125.745 72.283,123.09C75.002,127.807 81.22,131.55 86.5,133.5C88.277,134.6 90.277,135.434 92.5,136C99.186,137.948 105.505,138.057 111.5,136.5L111.5,130.5C113.735,130.795 115.735,130.461 117.5,129.5C119.152,124.659 119.818,119.659 119.5,114.5C119.538,111.193 118.872,108.026 117.5,105C114.888,100.579 112.555,96.08 110.5,91.5C116.533,88.166 122.533,84.833 128.5,81.5C133.024,78.138 136.357,73.804 138.5,68.5C139.557,64.319 142.536,60.802 140.893,57.704C140.929,58.815 135.6,59.517 135.562,59.217C135.267,56.851 137.011,53.191 136.715,50.824C134.13,48.141 130.084,45.111 126.378,44.392C121.982,42.859 117.437,42.3 112.5,42.5C109.167,42.667 105.833,42.833 102.5,43C101.584,43.278 100.918,43.778 100.5,44.5L96.5,44.5C96.666,38.491 95.635,32.553 95.136,26.562C94.528,24.996 94.559,23.6 93.5,22.5C90.528,15.212 85.672,9.799 78.311,7.087C76.418,7.595 74.607,9.008 73.5,10.5C73.586,9.504 73.252,8.671 72.5,8C76.839,3.015 85.158,5.949 86.241,5.909Z" style="fill:rgb(255,183,197);"/>
            </g>
            <g transform="matrix(14.128,0,0,14.128,-532.732,-43.8221)">
                <path d="M66.5,145.5C65.713,147.104 64.38,147.771 62.5,147.5C63.514,146.326 64.847,145.66 66.5,145.5Z" style="fill:rgb(219,237,198);fill-opacity:0.11;"/>
            </g>
            <g transform="matrix(14.128,0,0,14.128,-532.732,-43.8221)">
                <path d="M28.5,144.5C30.886,144.259 32.886,144.925 34.5,146.5C35.263,147.268 36.263,147.768 37.5,148C44.158,148.5 50.825,148.666 57.5,148.5L61.5,148.5C60.167,149.167 58.833,149.833 57.5,150.5L41.5,150.5C38.977,149.616 36.31,148.782 33.5,148C32.113,146.317 30.447,145.15 28.5,144.5Z" style="fill:rgb(218,234,198);fill-opacity:0.08;"/>
            </g>
            <g transform="matrix(14.128,0,0,14.128,-532.732,-43.8221)">
                <path d="M120.5,144.5L124.5,144.5C122.691,145.481 121.357,146.981 120.5,149C118.942,149.21 117.609,149.71 116.5,150.5L97.5,150.5C93.501,149.669 89.835,148.003 86.5,145.5C88.565,145.517 90.565,145.85 92.5,146.5C94.811,148.068 97.478,148.902 100.5,149C106.891,149.758 113.224,149.424 119.5,148C120.337,146.989 120.67,145.822 120.5,144.5Z" style="fill:rgb(219,235,199);fill-opacity:0.13;"/>
            </g>
        </g>
        <g transform="matrix(0.601312,-0.0922878,0.0922878,0.601312,17.5093,177.753)">
            <path d="M640.207,534.982C640.207,562.307 617.296,582.906 571.474,596.779C538.683,606.868 504.212,611.913 468.059,611.913C431.065,611.913 398.905,605.607 371.58,592.996C335.427,576.601 317.35,552.218 317.35,519.848C317.35,508.078 319.872,497.988 324.917,489.581C331.223,479.491 340.051,474.447 351.401,474.447C353.924,474.447 355.815,475.813 357.077,478.545C358.338,481.278 359.809,491.683 361.491,509.759C362.752,521.95 368.427,532.88 378.516,542.549C393.65,556.842 423.918,563.989 469.32,563.989C512.62,563.989 541.626,559.785 556.34,551.377C576.098,540.027 585.977,530.568 585.977,523.001C585.977,511.231 564.117,484.536 520.397,442.918C509.046,432.408 482.772,412.019 441.574,381.751C405.421,356.108 379.567,333.827 364.013,314.91C340.892,286.744 329.331,256.687 329.331,224.737C329.331,188.164 351.822,158.526 396.803,135.825C434.217,116.908 473.313,107.449 514.091,107.449C595.646,107.449 636.423,147.806 636.423,228.521C636.423,263.413 628.436,280.859 612.461,280.859C604.894,280.859 598.168,278.547 592.283,273.922C586.397,269.298 583.455,263.203 583.455,255.636C583.455,250.591 585.241,243.234 588.815,233.565C592.388,223.896 594.174,216.54 594.174,211.495C594.174,193.839 583.034,179.546 560.754,168.616C542.677,159.367 523.76,154.743 504.002,154.743C443.046,154.743 402.899,177.864 383.561,224.107C381.879,228.31 381.039,232.304 381.039,236.088C381.039,257.107 403.529,286.324 448.511,323.738C489.708,357.789 531.117,391.841 572.735,425.892C617.716,467.51 640.207,503.874 640.207,534.982Z" style="fill:none;stroke:white;stroke-width:157.53px;"/>
            <path d="M640.207,534.982C640.207,562.307 617.296,582.906 571.474,596.779C538.683,606.868 504.212,611.913 468.059,611.913C431.065,611.913 398.905,605.607 371.58,592.996C335.427,576.601 317.35,552.218 317.35,519.848C317.35,508.078 319.872,497.988 324.917,489.581C331.223,479.491 340.051,474.447 351.401,474.447C353.924,474.447 355.815,475.813 357.077,478.545C358.338,481.278 359.809,491.683 361.491,509.759C362.752,521.95 368.427,532.88 378.516,542.549C393.65,556.842 423.918,563.989 469.32,563.989C512.62,563.989 541.626,559.785 556.34,551.377C576.098,540.027 585.977,530.568 585.977,523.001C585.977,511.231 564.117,484.536 520.397,442.918C509.046,432.408 482.772,412.019 441.574,381.751C405.421,356.108 379.567,333.827 364.013,314.91C340.892,286.744 329.331,256.687 329.331,224.737C329.331,188.164 351.822,158.526 396.803,135.825C434.217,116.908 473.313,107.449 514.091,107.449C595.646,107.449 636.423,147.806 636.423,228.521C636.423,263.413 628.436,280.859 612.461,280.859C604.894,280.859 598.168,278.547 592.283,273.922C586.397,269.298 583.455,263.203 583.455,255.636C583.455,250.591 585.241,243.234 588.815,233.565C592.388,223.896 594.174,216.54 594.174,211.495C594.174,193.839 583.034,179.546 560.754,168.616C542.677,159.367 523.76,154.743 504.002,154.743C443.046,154.743 402.899,177.864 383.561,224.107C381.879,228.31 381.039,232.304 381.039,236.088C381.039,257.107 403.529,286.324 448.511,323.738C489.708,357.789 531.117,391.841 572.735,425.892C617.716,467.51 640.207,503.874 640.207,534.982Z" style="fill:url(#_Radial1);"/>
        </g>
        <g transform="matrix(0.608185,0.0142797,-0.0142797,0.608185,32.1371,-292.56)">
            <path d="M1044.12,1219.33C1044.12,1224.73 1042.05,1229.5 1037.92,1233.63C1033.79,1237.76 1029.02,1239.83 1023.62,1239.83C1015.67,1239.83 1009.15,1232.2 1004.07,1216.94C1002.8,1213.13 1000.41,1202.16 996.914,1184.04C982.928,1200.57 964.572,1213.92 941.845,1224.09C919.117,1234.27 896.788,1239.35 874.855,1239.35C849.744,1239.35 830.513,1229.82 817.163,1210.74C805.72,1194.21 799.998,1172.92 799.998,1146.85C799.998,1129.69 803.018,1113.16 809.057,1097.27C820.501,1067.39 837.983,1039.41 861.505,1013.35C889.795,982.2 917.29,966.625 943.99,966.625C950.665,966.625 959.963,968.373 971.883,971.87C983.802,975.366 992.782,977.273 998.821,977.591L999.775,977.114C1000.41,961.857 1008.36,954.228 1023.62,954.228C1033.79,954.228 1038.87,963.605 1038.87,982.359C1038.87,1003.02 1038.32,1034.01 1037.2,1075.33C1036.09,1116.66 1035.54,1147.65 1035.54,1168.31C1035.54,1178.48 1036.01,1186.11 1036.96,1191.19C1037.28,1193.1 1038.71,1197.71 1041.26,1205.02C1043.16,1210.74 1044.12,1215.51 1044.12,1219.33ZM1002.16,1077.24C1002.16,1027.65 984.041,1002.86 947.804,1002.86C923.011,1002.86 897.582,1021.46 871.517,1058.65C846.724,1093.61 834.328,1124.13 834.328,1150.19C834.328,1167.36 837.506,1179.91 843.863,1187.86C850.856,1196.76 862.776,1201.21 879.623,1201.21C913.634,1201.21 942.56,1189.05 966.399,1164.73C990.239,1140.42 1002.16,1111.25 1002.16,1077.24Z" style="fill:none;stroke:white;stroke-width:157.53px;"/>
            <path d="M1044.12,1219.33C1044.12,1224.73 1042.05,1229.5 1037.92,1233.63C1033.79,1237.76 1029.02,1239.83 1023.62,1239.83C1015.67,1239.83 1009.15,1232.2 1004.07,1216.94C1002.8,1213.13 1000.41,1202.16 996.914,1184.04C982.928,1200.57 964.572,1213.92 941.845,1224.09C919.117,1234.27 896.788,1239.35 874.855,1239.35C849.744,1239.35 830.513,1229.82 817.163,1210.74C805.72,1194.21 799.998,1172.92 799.998,1146.85C799.998,1129.69 803.018,1113.16 809.057,1097.27C820.501,1067.39 837.983,1039.41 861.505,1013.35C889.795,982.2 917.29,966.625 943.99,966.625C950.665,966.625 959.963,968.373 971.883,971.87C983.802,975.366 992.782,977.273 998.821,977.591L999.775,977.114C1000.41,961.857 1008.36,954.228 1023.62,954.228C1033.79,954.228 1038.87,963.605 1038.87,982.359C1038.87,1003.02 1038.32,1034.01 1037.2,1075.33C1036.09,1116.66 1035.54,1147.65 1035.54,1168.31C1035.54,1178.48 1036.01,1186.11 1036.96,1191.19C1037.28,1193.1 1038.71,1197.71 1041.26,1205.02C1043.16,1210.74 1044.12,1215.51 1044.12,1219.33ZM1002.16,1077.24C1002.16,1027.65 984.041,1002.86 947.804,1002.86C923.011,1002.86 897.582,1021.46 871.517,1058.65C846.724,1093.61 834.328,1124.13 834.328,1150.19C834.328,1167.36 837.506,1179.91 843.863,1187.86C850.856,1196.76 862.776,1201.21 879.623,1201.21C913.634,1201.21 942.56,1189.05 966.399,1164.73C990.239,1140.42 1002.16,1111.25 1002.16,1077.24Z" style="fill:url(#_Radial2);"/>
        </g>
        <g transform="matrix(0.601757,0.0893401,-0.0893401,0.601757,34.3187,-662.001)">
            <path d="M1567.61,1681.7C1567.61,1688.69 1563.95,1692.19 1556.64,1692.19C1546.15,1692.19 1534.23,1684.56 1520.88,1669.31C1502.77,1648.64 1457.95,1603.03 1386.43,1532.47L1385.95,1651.66C1385.95,1679 1380.23,1692.67 1368.79,1692.67C1358.3,1692.67 1352.26,1682.97 1350.67,1663.58C1350.35,1659.45 1350.19,1635.93 1350.19,1593.02C1350.19,1565.05 1350.03,1522.93 1349.71,1466.67C1349.4,1410.41 1349.24,1368.29 1349.24,1340.32C1349.24,1320.93 1355.12,1311.23 1366.88,1311.23C1375.46,1311.23 1380.87,1318.7 1383.09,1333.64C1383.73,1337.77 1384.04,1348.58 1384.04,1366.06C1384.04,1379.1 1384.36,1395.94 1385,1416.6C1385.95,1443.94 1386.43,1460.79 1386.43,1467.14C1403.27,1459.2 1420.12,1451.25 1436.97,1443.31C1456.04,1434.09 1472.25,1425.03 1485.6,1416.13C1497.36,1408.5 1506.58,1404.68 1513.25,1404.68C1523.43,1404.68 1528.51,1409.61 1528.51,1419.46C1528.51,1428.05 1523.59,1435.84 1513.73,1442.83C1496.57,1455.23 1459.85,1473.98 1403.59,1499.09C1448.73,1541.05 1479.88,1570.77 1497.04,1588.25C1544.09,1636.25 1567.61,1667.4 1567.61,1681.7Z" style="fill:none;stroke:white;stroke-width:157.53px;"/>
            <path d="M1567.61,1681.7C1567.61,1688.69 1563.95,1692.19 1556.64,1692.19C1546.15,1692.19 1534.23,1684.56 1520.88,1669.31C1502.77,1648.64 1457.95,1603.03 1386.43,1532.47L1385.95,1651.66C1385.95,1679 1380.23,1692.67 1368.79,1692.67C1358.3,1692.67 1352.26,1682.97 1350.67,1663.58C1350.35,1659.45 1350.19,1635.93 1350.19,1593.02C1350.19,1565.05 1350.03,1522.93 1349.71,1466.67C1349.4,1410.41 1349.24,1368.29 1349.24,1340.32C1349.24,1320.93 1355.12,1311.23 1366.88,1311.23C1375.46,1311.23 1380.87,1318.7 1383.09,1333.64C1383.73,1337.77 1384.04,1348.58 1384.04,1366.06C1384.04,1379.1 1384.36,1395.94 1385,1416.6C1385.95,1443.94 1386.43,1460.79 1386.43,1467.14C1403.27,1459.2 1420.12,1451.25 1436.97,1443.31C1456.04,1434.09 1472.25,1425.03 1485.6,1416.13C1497.36,1408.5 1506.58,1404.68 1513.25,1404.68C1523.43,1404.68 1528.51,1409.61 1528.51,1419.46C1528.51,1428.05 1523.59,1435.84 1513.73,1442.83C1496.57,1455.23 1459.85,1473.98 1403.59,1499.09C1448.73,1541.05 1479.88,1570.77 1497.04,1588.25C1544.09,1636.25 1567.61,1667.4 1567.61,1681.7Z" style="fill:url(#_Radial3);"/>
        </g>
        <g transform="matrix(0.602719,0.0826038,-0.0826038,0.602719,293.312,-991.125)">
            <path d="M1483.7,2272.87C1483.7,2285.59 1477.19,2291.94 1464.15,2291.94C1456.53,2291.94 1450.09,2284.23 1444.85,2268.82C1439.6,2253.4 1435.71,2245.22 1433.16,2244.26C1429.35,2258.89 1416.79,2270.65 1395.5,2279.55C1377.7,2287.18 1359.9,2290.99 1342.1,2290.99C1306.5,2290.99 1283.45,2278.12 1272.96,2252.37C1266.92,2237.75 1263.9,2209.62 1263.9,2167.98C1263.9,2064.03 1272.01,2012.07 1288.22,2012.07C1293.94,2012.07 1298.39,2016.52 1301.57,2025.41C1303.48,2031.45 1304.43,2038.13 1304.43,2045.44C1304.43,2061.33 1303,2085.09 1300.14,2116.72C1297.28,2148.35 1295.85,2172.11 1295.85,2188C1295.85,2210.25 1298.07,2226.3 1302.52,2236.16C1309.52,2251.1 1322.71,2258.57 1342.1,2258.57C1366.25,2258.57 1385.33,2251.57 1399.31,2237.59C1419.34,2217.56 1429.35,2150.34 1429.35,2035.9C1429.35,2015.88 1434.75,2005.87 1445.56,2005.87C1451.92,2005.87 1457,2009.84 1460.82,2017.79C1464,2024.46 1465.59,2031.3 1465.59,2038.29C1465.59,2050.68 1464.55,2069.36 1462.49,2094.31C1460.42,2119.26 1459.39,2137.94 1459.39,2150.34C1459.39,2192.93 1465.74,2227.89 1478.46,2255.23C1481.95,2262.86 1483.7,2268.74 1483.7,2272.87Z" style="fill:none;stroke:white;stroke-width:157.53px;"/>
            <path d="M1483.7,2272.87C1483.7,2285.59 1477.19,2291.94 1464.15,2291.94C1456.53,2291.94 1450.09,2284.23 1444.85,2268.82C1439.6,2253.4 1435.71,2245.22 1433.16,2244.26C1429.35,2258.89 1416.79,2270.65 1395.5,2279.55C1377.7,2287.18 1359.9,2290.99 1342.1,2290.99C1306.5,2290.99 1283.45,2278.12 1272.96,2252.37C1266.92,2237.75 1263.9,2209.62 1263.9,2167.98C1263.9,2064.03 1272.01,2012.07 1288.22,2012.07C1293.94,2012.07 1298.39,2016.52 1301.57,2025.41C1303.48,2031.45 1304.43,2038.13 1304.43,2045.44C1304.43,2061.33 1303,2085.09 1300.14,2116.72C1297.28,2148.35 1295.85,2172.11 1295.85,2188C1295.85,2210.25 1298.07,2226.3 1302.52,2236.16C1309.52,2251.1 1322.71,2258.57 1342.1,2258.57C1366.25,2258.57 1385.33,2251.57 1399.31,2237.59C1419.34,2217.56 1429.35,2150.34 1429.35,2035.9C1429.35,2015.88 1434.75,2005.87 1445.56,2005.87C1451.92,2005.87 1457,2009.84 1460.82,2017.79C1464,2024.46 1465.59,2031.3 1465.59,2038.29C1465.59,2050.68 1464.55,2069.36 1462.49,2094.31C1460.42,2119.26 1459.39,2137.94 1459.39,2150.34C1459.39,2192.93 1465.74,2227.89 1478.46,2255.23C1481.95,2262.86 1483.7,2268.74 1483.7,2272.87Z" style="fill:url(#_Radial4);"/>
        </g>
        <g transform="matrix(0.608161,-0.015294,0.015294,0.608161,797.046,-885.884)">
            <path d="M571.573,2079.05C571.573,2095.9 566.646,2110.84 556.793,2123.87C553.932,2127.69 551.707,2129.6 550.118,2129.6C548.21,2129.6 544.078,2123.56 537.721,2111.48C535.496,2107.35 534.145,2099.08 533.668,2086.68C533.191,2074.29 531.682,2065.55 529.139,2060.46C525.006,2052.51 516.742,2048.54 504.345,2048.54C486.227,2048.54 467.314,2054.9 447.607,2067.61C425.674,2081.6 414.708,2097.17 414.708,2114.34C414.708,2127.69 415.026,2147.87 415.662,2174.89C416.297,2201.91 416.615,2222.25 416.615,2235.92C416.615,2277.24 411.371,2297.9 400.881,2297.9C386.259,2297.9 378.949,2272.32 378.949,2221.14C378.949,2211.92 379.187,2201.03 379.664,2188.48C380.141,2175.92 380.379,2168.85 380.379,2167.26C380.379,2135.47 379.425,2108.62 377.518,2086.68C374.657,2053.63 373.227,2039.32 373.227,2043.77C373.227,2023.43 378.631,2013.26 389.438,2013.26C396.431,2013.26 401.835,2018.66 405.649,2029.47C407.556,2036.46 409.622,2043.3 411.847,2049.97C449.355,2023.91 481.141,2010.87 507.206,2010.87C524.689,2010.87 539.787,2017.87 552.502,2031.85C565.216,2045.84 571.573,2061.57 571.573,2079.05Z" style="fill:none;stroke:white;stroke-width:157.53px;"/>
            <path d="M571.573,2079.05C571.573,2095.9 566.646,2110.84 556.793,2123.87C553.932,2127.69 551.707,2129.6 550.118,2129.6C548.21,2129.6 544.078,2123.56 537.721,2111.48C535.496,2107.35 534.145,2099.08 533.668,2086.68C533.191,2074.29 531.682,2065.55 529.139,2060.46C525.006,2052.51 516.742,2048.54 504.345,2048.54C486.227,2048.54 467.314,2054.9 447.607,2067.61C425.674,2081.6 414.708,2097.17 414.708,2114.34C414.708,2127.69 415.026,2147.87 415.662,2174.89C416.297,2201.91 416.615,2222.25 416.615,2235.92C416.615,2277.24 411.371,2297.9 400.881,2297.9C386.259,2297.9 378.949,2272.32 378.949,2221.14C378.949,2211.92 379.187,2201.03 379.664,2188.48C380.141,2175.92 380.379,2168.85 380.379,2167.26C380.379,2135.47 379.425,2108.62 377.518,2086.68C374.657,2053.63 373.227,2039.32 373.227,2043.77C373.227,2023.43 378.631,2013.26 389.438,2013.26C396.431,2013.26 401.835,2018.66 405.649,2029.47C407.556,2036.46 409.622,2043.3 411.847,2049.97C449.355,2023.91 481.141,2010.87 507.206,2010.87C524.689,2010.87 539.787,2017.87 552.502,2031.85C565.216,2045.84 571.573,2061.57 571.573,2079.05Z" style="fill:url(#_Radial5);"/>
        </g>
        <g transform="matrix(0.601494,-0.0910941,0.0910941,0.601494,300.381,-1017.41)">
            <path d="M1349.51,2714.35C1349.51,2719.75 1347.44,2724.52 1343.31,2728.65C1339.18,2732.78 1334.41,2734.85 1329.01,2734.85C1321.06,2734.85 1314.54,2727.22 1309.46,2711.96C1308.19,2708.15 1305.8,2697.18 1302.31,2679.06C1288.32,2695.59 1269.96,2708.94 1247.24,2719.11C1224.51,2729.29 1202.18,2734.37 1180.25,2734.37C1155.14,2734.37 1135.91,2724.84 1122.56,2705.76C1111.11,2689.24 1105.39,2667.94 1105.39,2641.87C1105.39,2624.71 1108.41,2608.18 1114.45,2592.29C1125.89,2562.41 1143.38,2534.44 1166.9,2508.37C1195.19,2477.22 1222.68,2461.64 1249.38,2461.64C1256.06,2461.64 1265.36,2463.39 1277.28,2466.89C1289.19,2470.39 1298.17,2472.29 1304.21,2472.61L1305.17,2472.14C1305.8,2456.88 1313.75,2449.25 1329.01,2449.25C1339.18,2449.25 1344.26,2458.63 1344.26,2477.38C1344.26,2498.04 1343.71,2529.03 1342.6,2570.35C1341.48,2611.68 1340.93,2642.67 1340.93,2663.33C1340.93,2673.5 1341.4,2681.13 1342.36,2686.22C1342.67,2688.12 1344.11,2692.73 1346.65,2700.04C1348.56,2705.76 1349.51,2710.53 1349.51,2714.35ZM1307.55,2572.26C1307.55,2522.68 1289.43,2497.88 1253.2,2497.88C1228.4,2497.88 1202.98,2516.48 1176.91,2553.67C1152.12,2588.63 1139.72,2619.15 1139.72,2645.21C1139.72,2662.38 1142.9,2674.93 1149.26,2682.88C1156.25,2691.78 1168.17,2696.23 1185.02,2696.23C1219.03,2696.23 1247.95,2684.07 1271.79,2659.75C1295.63,2635.44 1307.55,2606.27 1307.55,2572.26Z" style="fill:none;stroke:white;stroke-width:157.53px;"/>
            <path d="M1349.51,2714.35C1349.51,2719.75 1347.44,2724.52 1343.31,2728.65C1339.18,2732.78 1334.41,2734.85 1329.01,2734.85C1321.06,2734.85 1314.54,2727.22 1309.46,2711.96C1308.19,2708.15 1305.8,2697.18 1302.31,2679.06C1288.32,2695.59 1269.96,2708.94 1247.24,2719.11C1224.51,2729.29 1202.18,2734.37 1180.25,2734.37C1155.14,2734.37 1135.91,2724.84 1122.56,2705.76C1111.11,2689.24 1105.39,2667.94 1105.39,2641.87C1105.39,2624.71 1108.41,2608.18 1114.45,2592.29C1125.89,2562.41 1143.38,2534.44 1166.9,2508.37C1195.19,2477.22 1222.68,2461.64 1249.38,2461.64C1256.06,2461.64 1265.36,2463.39 1277.28,2466.89C1289.19,2470.39 1298.17,2472.29 1304.21,2472.61L1305.17,2472.14C1305.8,2456.88 1313.75,2449.25 1329.01,2449.25C1339.18,2449.25 1344.26,2458.63 1344.26,2477.38C1344.26,2498.04 1343.71,2529.03 1342.6,2570.35C1341.48,2611.68 1340.93,2642.67 1340.93,2663.33C1340.93,2673.5 1341.4,2681.13 1342.36,2686.22C1342.67,2688.12 1344.11,2692.73 1346.65,2700.04C1348.56,2705.76 1349.51,2710.53 1349.51,2714.35ZM1307.55,2572.26C1307.55,2522.68 1289.43,2497.88 1253.2,2497.88C1228.4,2497.88 1202.98,2516.48 1176.91,2553.67C1152.12,2588.63 1139.72,2619.15 1139.72,2645.21C1139.72,2662.38 1142.9,2674.93 1149.26,2682.88C1156.25,2691.78 1168.17,2696.23 1185.02,2696.23C1219.03,2696.23 1247.95,2684.07 1271.79,2659.75C1295.63,2635.44 1307.55,2606.27 1307.55,2572.26Z" style="fill:url(#_Radial6);"/>
        </g>
        <g transform="matrix(0.725094,-0.0433886,0.0433886,0.725094,725.677,-960.176)">
            <path d="M990.089,2042.03C990.089,2047.9 987.022,2050.83 980.889,2050.83C972.089,2050.83 962.089,2044.43 950.889,2031.63C935.689,2014.3 898.089,1976.03 838.089,1916.83L837.689,2016.83C837.689,2039.77 832.889,2051.23 823.289,2051.23C814.489,2051.23 809.422,2043.1 808.089,2026.83C807.822,2023.37 807.689,2003.63 807.689,1967.63C807.689,1944.16 807.556,1908.83 807.289,1861.63C807.022,1814.43 806.889,1779.1 806.889,1755.63C806.889,1739.37 811.822,1731.23 821.689,1731.23C828.889,1731.23 833.422,1737.5 835.289,1750.03C835.822,1753.5 836.089,1762.57 836.089,1777.23C836.089,1788.16 836.356,1802.3 836.889,1819.63C837.689,1842.57 838.089,1856.7 838.089,1862.03C852.222,1855.37 866.356,1848.7 880.489,1842.03C896.489,1834.3 910.089,1826.7 921.289,1819.23C931.156,1812.83 938.889,1809.63 944.489,1809.63C953.022,1809.63 957.289,1813.77 957.289,1822.03C957.289,1829.23 953.156,1835.77 944.889,1841.63C930.489,1852.03 899.689,1867.77 852.489,1888.83C890.356,1924.03 916.489,1948.97 930.889,1963.63C970.356,2003.9 990.089,2030.03 990.089,2042.03Z" style="fill:none;fill-rule:nonzero;stroke:white;stroke-width:114.72px;"/>
            <path d="M990.089,2042.03C990.089,2047.9 987.022,2050.83 980.889,2050.83C972.089,2050.83 962.089,2044.43 950.889,2031.63C935.689,2014.3 898.089,1976.03 838.089,1916.83L837.689,2016.83C837.689,2039.77 832.889,2051.23 823.289,2051.23C814.489,2051.23 809.422,2043.1 808.089,2026.83C807.822,2023.37 807.689,2003.63 807.689,1967.63C807.689,1944.16 807.556,1908.83 807.289,1861.63C807.022,1814.43 806.889,1779.1 806.889,1755.63C806.889,1739.37 811.822,1731.23 821.689,1731.23C828.889,1731.23 833.422,1737.5 835.289,1750.03C835.822,1753.5 836.089,1762.57 836.089,1777.23C836.089,1788.16 836.356,1802.3 836.889,1819.63C837.689,1842.57 838.089,1856.7 838.089,1862.03C852.222,1855.37 866.356,1848.7 880.489,1842.03C896.489,1834.3 910.089,1826.7 921.289,1819.23C931.156,1812.83 938.889,1809.63 944.489,1809.63C953.022,1809.63 957.289,1813.77 957.289,1822.03C957.289,1829.23 953.156,1835.77 944.889,1841.63C930.489,1852.03 899.689,1867.77 852.489,1888.83C890.356,1924.03 916.489,1948.97 930.889,1963.63C970.356,2003.9 990.089,2030.03 990.089,2042.03Z" style="fill:url(#_Radial7);fill-rule:nonzero;"/>
        </g>
        <g transform="matrix(0.720308,-0.0938097,0.0938097,0.720308,367.814,-773.581)">
            <path d="M1592.14,1761.15C1592.14,1770.22 1590.01,1779.68 1585.74,1789.55C1583.34,1795.15 1581.01,1798.62 1578.74,1799.95C1576.47,1801.29 1572.01,1801.95 1565.34,1801.95C1556.81,1801.95 1543.87,1801.62 1526.54,1800.95C1509.21,1800.29 1496.27,1799.95 1487.74,1799.95C1464.81,1799.95 1443.47,1800.49 1423.74,1801.55C1424.01,1826.35 1427.07,1845.15 1432.94,1857.95C1441.74,1876.35 1456.94,1885.55 1478.54,1885.55C1494.01,1885.55 1511.81,1880.49 1531.94,1870.35C1552.07,1860.22 1563.47,1855.15 1566.14,1855.15C1576.27,1855.15 1581.34,1859.95 1581.34,1869.55C1581.34,1882.09 1566.41,1893.29 1536.54,1903.15C1512.01,1911.15 1491.34,1915.15 1474.54,1915.15C1419.87,1915.15 1392.54,1881.29 1392.54,1813.55C1392.54,1804.22 1392.81,1796.88 1393.34,1791.55C1396.54,1760.09 1409.07,1733.15 1430.94,1710.75C1453.87,1687.55 1480.81,1675.95 1511.74,1675.95C1537.87,1675.95 1558.01,1686.09 1572.14,1706.35C1585.47,1725.55 1592.14,1743.82 1592.14,1761.15ZM1562.54,1765.55C1562.54,1750.88 1557.21,1737.15 1546.54,1724.35C1535.07,1711.29 1522.14,1704.75 1507.74,1704.75C1493.61,1704.75 1477.74,1712.42 1460.14,1727.75C1442.54,1743.09 1431.74,1757.82 1427.74,1771.95C1455.47,1771.15 1477.21,1770.75 1492.94,1770.75L1508.94,1770.75C1514.54,1770.75 1522.81,1771.15 1533.74,1771.95C1544.67,1772.75 1552.94,1773.15 1558.54,1773.15C1561.21,1773.15 1562.54,1770.62 1562.54,1765.55Z" style="fill:none;fill-rule:nonzero;stroke:white;stroke-width:114.72px;"/>
            <path d="M1592.14,1761.15C1592.14,1770.22 1590.01,1779.68 1585.74,1789.55C1583.34,1795.15 1581.01,1798.62 1578.74,1799.95C1576.47,1801.29 1572.01,1801.95 1565.34,1801.95C1556.81,1801.95 1543.87,1801.62 1526.54,1800.95C1509.21,1800.29 1496.27,1799.95 1487.74,1799.95C1464.81,1799.95 1443.47,1800.49 1423.74,1801.55C1424.01,1826.35 1427.07,1845.15 1432.94,1857.95C1441.74,1876.35 1456.94,1885.55 1478.54,1885.55C1494.01,1885.55 1511.81,1880.49 1531.94,1870.35C1552.07,1860.22 1563.47,1855.15 1566.14,1855.15C1576.27,1855.15 1581.34,1859.95 1581.34,1869.55C1581.34,1882.09 1566.41,1893.29 1536.54,1903.15C1512.01,1911.15 1491.34,1915.15 1474.54,1915.15C1419.87,1915.15 1392.54,1881.29 1392.54,1813.55C1392.54,1804.22 1392.81,1796.88 1393.34,1791.55C1396.54,1760.09 1409.07,1733.15 1430.94,1710.75C1453.87,1687.55 1480.81,1675.95 1511.74,1675.95C1537.87,1675.95 1558.01,1686.09 1572.14,1706.35C1585.47,1725.55 1592.14,1743.82 1592.14,1761.15ZM1562.54,1765.55C1562.54,1750.88 1557.21,1737.15 1546.54,1724.35C1535.07,1711.29 1522.14,1704.75 1507.74,1704.75C1493.61,1704.75 1477.74,1712.42 1460.14,1727.75C1442.54,1743.09 1431.74,1757.82 1427.74,1771.95C1455.47,1771.15 1477.21,1770.75 1492.94,1770.75L1508.94,1770.75C1514.54,1770.75 1522.81,1771.15 1533.74,1771.95C1544.67,1772.75 1552.94,1773.15 1558.54,1773.15C1561.21,1773.15 1562.54,1770.62 1562.54,1765.55Z" style="fill:url(#_Radial8);fill-rule:nonzero;"/>
        </g>
        <g transform="matrix(0.726391,0,0,0.726391,192.811,-938.32)">
            <path d="M2291.9,1689.22C2291.9,1697.49 2289.5,1708.96 2284.7,1723.62C2269.77,1768.96 2252.57,1815.89 2233.1,1864.42C2204.3,1935.62 2182.84,1976.56 2168.7,1987.22C2163.64,1990.96 2158.3,1992.82 2152.7,1992.82C2140.44,1992.82 2126.84,1987.09 2111.9,1975.62C2096.17,1963.62 2088.3,1951.62 2088.3,1939.62C2088.3,1932.42 2093.1,1926.16 2102.7,1920.82C2110.97,1916.02 2118.97,1913.62 2126.7,1913.62C2133.1,1913.62 2136.3,1916.02 2136.3,1920.82C2136.3,1923.76 2133.84,1927.62 2128.9,1932.42C2123.97,1937.22 2121.5,1941.09 2121.5,1944.02C2121.5,1949.36 2125.37,1953.76 2133.1,1957.22C2139.5,1959.89 2145.77,1961.22 2151.9,1961.22C2158.04,1951.09 2166.84,1935.49 2178.3,1914.42C2178.3,1914.42 2186.44,1896.16 2202.7,1859.62C2185.9,1840.16 2165.24,1811.89 2140.7,1774.82C2110.84,1730.02 2095.9,1701.09 2095.9,1688.02C2095.9,1680.29 2098.97,1676.42 2105.1,1676.42C2112.3,1676.42 2120.04,1682.56 2128.3,1694.82C2142.17,1715.89 2155.9,1736.96 2169.5,1758.02C2186.04,1783.09 2200.44,1803.62 2212.7,1819.62C2221.77,1798.02 2235.24,1765.62 2253.1,1722.42C2265.37,1691.76 2276.04,1676.42 2285.1,1676.42C2289.64,1676.42 2291.9,1680.69 2291.9,1689.22Z" style="fill:none;fill-rule:nonzero;stroke:white;stroke-width:114.72px;"/>
            <path d="M2291.9,1689.22C2291.9,1697.49 2289.5,1708.96 2284.7,1723.62C2269.77,1768.96 2252.57,1815.89 2233.1,1864.42C2204.3,1935.62 2182.84,1976.56 2168.7,1987.22C2163.64,1990.96 2158.3,1992.82 2152.7,1992.82C2140.44,1992.82 2126.84,1987.09 2111.9,1975.62C2096.17,1963.62 2088.3,1951.62 2088.3,1939.62C2088.3,1932.42 2093.1,1926.16 2102.7,1920.82C2110.97,1916.02 2118.97,1913.62 2126.7,1913.62C2133.1,1913.62 2136.3,1916.02 2136.3,1920.82C2136.3,1923.76 2133.84,1927.62 2128.9,1932.42C2123.97,1937.22 2121.5,1941.09 2121.5,1944.02C2121.5,1949.36 2125.37,1953.76 2133.1,1957.22C2139.5,1959.89 2145.77,1961.22 2151.9,1961.22C2158.04,1951.09 2166.84,1935.49 2178.3,1914.42C2178.3,1914.42 2186.44,1896.16 2202.7,1859.62C2185.9,1840.16 2165.24,1811.89 2140.7,1774.82C2110.84,1730.02 2095.9,1701.09 2095.9,1688.02C2095.9,1680.29 2098.97,1676.42 2105.1,1676.42C2112.3,1676.42 2120.04,1682.56 2128.3,1694.82C2142.17,1715.89 2155.9,1736.96 2169.5,1758.02C2186.04,1783.09 2200.44,1803.62 2212.7,1819.62C2221.77,1798.02 2235.24,1765.62 2253.1,1722.42C2265.37,1691.76 2276.04,1676.42 2285.1,1676.42C2289.64,1676.42 2291.9,1680.69 2291.9,1689.22Z" style="fill:url(#_Radial9);fill-rule:nonzero;"/>
        </g>
    </g>
    <defs>
        <radialGradient id="_Radial1" cx="0" cy="0" r="1" gradientUnits="userSpaceOnUse" gradientTransform="matrix(2486.68,0,0,462.252,42.775,341.402)"><stop offset="0" style="stop-color:rgb(254,238,237);stop-opacity:1"/><stop offset="1" style="stop-color:rgb(255,183,197);stop-opacity:1"/></radialGradient>
        <radialGradient id="_Radial2" cx="0" cy="0" r="1" gradientUnits="userSpaceOnUse" gradientTransform="matrix(2486.68,0,0,462.252,42.775,341.402)"><stop offset="0" style="stop-color:rgb(254,238,237);stop-opacity:1"/><stop offset="1" style="stop-color:rgb(255,183,197);stop-opacity:1"/></radialGradient>
        <radialGradient id="_Radial3" cx="0" cy="0" r="1" gradientUnits="userSpaceOnUse" gradientTransform="matrix(2486.68,0,0,462.252,42.775,341.402)"><stop offset="0" style="stop-color:rgb(254,238,237);stop-opacity:1"/><stop offset="1" style="stop-color:rgb(255,183,197);stop-opacity:1"/></radialGradient>
        <radialGradient id="_Radial4" cx="0" cy="0" r="1" gradientUnits="userSpaceOnUse" gradientTransform="matrix(2486.68,0,0,462.252,42.775,341.402)"><stop offset="0" style="stop-color:rgb(254,238,237);stop-opacity:1"/><stop offset="1" style="stop-color:rgb(255,183,197);stop-opacity:1"/></radialGradient>
        <radialGradient id="_Radial5" cx="0" cy="0" r="1" gradientUnits="userSpaceOnUse" gradientTransform="matrix(2486.68,0,0,462.252,42.775,341.402)"><stop offset="0" style="stop-color:rgb(254,238,237);stop-opacity:1"/><stop offset="1" style="stop-color:rgb(255,183,197);stop-opacity:1"/></radialGradient>
        <radialGradient id="_Radial6" cx="0" cy="0" r="1" gradientUnits="userSpaceOnUse" gradientTransform="matrix(2486.68,0,0,462.252,42.775,341.402)"><stop offset="0" style="stop-color:rgb(254,238,237);stop-opacity:1"/><stop offset="1" style="stop-color:rgb(255,183,197);stop-opacity:1"/></radialGradient>
        <radialGradient id="_Radial7" cx="0" cy="0" r="1" gradientUnits="userSpaceOnUse" gradientTransform="matrix(1146.01,0,0,1430.95,160.31,769.754)"><stop offset="0" style="stop-color:rgb(254,238,237);stop-opacity:1"/><stop offset="1" style="stop-color:rgb(255,183,197);stop-opacity:1"/></radialGradient>
        <radialGradient id="_Radial8" cx="0" cy="0" r="1" gradientUnits="userSpaceOnUse" gradientTransform="matrix(1146.01,0,0,1430.95,160.31,769.754)"><stop offset="0" style="stop-color:rgb(254,238,237);stop-opacity:1"/><stop offset="1" style="stop-color:rgb(255,183,197);stop-opacity:1"/></radialGradient>
        <radialGradient id="_Radial9" cx="0" cy="0" r="1" gradientUnits="userSpaceOnUse" gradientTransform="matrix(1146.01,0,0,1430.95,160.31,769.754)"><stop offset="0" style="stop-color:rgb(254,238,237);stop-opacity:1"/><stop offset="1" style="stop-color:rgb(255,183,197);stop-opacity:1"/></radialGradient>
    </defs>
</svg>
